solid case
facet normal -1.0 0.0 0.0
  outer loop
    vertex 4169.19180351561 -3405.202582333091 20.000000000000004
    vertex 4169.19180351561 -3415.202582333091 0.0
    vertex 4169.19180351561 -3415.202582333091 20.000000000000004
  endloop
endfacet
facet normal -1.0 0.0 0.0
  outer loop
    vertex 4169.19180351561 -3415.202582333091 0.0
    vertex 4169.19180351561 -3405.202582333091 20.000000000000004
    vertex 4169.19180351561 -3405.202582333091 0.0
  endloop
endfacet
facet normal 0.0 0.0 1.0
  outer loop
    vertex 4153.19180351561 -3415.202582333091 0.0
    vertex 4158.647450547343 -3411.785123847908 0.0
    vertex 4153.19180351561 -3405.202582333091 0.0
  endloop
endfacet
facet normal 0.0 0.0 1.0
  outer loop
    vertex 4158.647450547343 -3411.785123847908 0.0
    vertex 4153.19180351561 -3415.202582333091 0.0
    vertex 4159.099677074091 -3412.2556749502237 0.0
  endloop
endfacet
facet normal 0.0 0.0 1.0
  outer loop
    vertex 4159.099677074091 -3412.2556749502237 0.0
    vertex 4153.19180351561 -3415.202582333091 0.0
    vertex 4159.658281942586 -3412.593147574716 0.0
  endloop
endfacet
facet normal 0.0 0.0 1.0
  outer loop
    vertex 4159.658281942586 -3412.593147574716 0.0
    vertex 4153.19180351561 -3415.202582333091 0.0
    vertex 4160.285197154175 -3412.7745435197257 0.0
  endloop
endfacet
facet normal 0.0 0.0 1.0
  outer loop
    vertex 4160.285197154175 -3412.7745435197257 0.0
    vertex 4153.19180351561 -3415.202582333091 0.0
    vertex 4169.19180351561 -3415.202582333091 0.0
  endloop
endfacet
facet normal 0.0 0.0 1.0
  outer loop
    vertex 4153.19180351561 -3405.202582333091 0.0
    vertex 4158.647450547343 -3411.785123847908 0.0
    vertex 4158.332420852795 -3411.213561547768 0.0
  endloop
endfacet
facet normal 0.0 0.0 1.0
  outer loop
    vertex 4153.19180351561 -3405.202582333091 0.0
    vertex 4158.332420852795 -3411.213561547768 0.0
    vertex 4158.176056743522 -3410.5799390760108 0.0
  endloop
endfacet
facet normal 0.0 0.0 1.0
  outer loop
    vertex 4160.285197154175 -3412.7745435197257 0.0
    vertex 4169.19180351561 -3415.202582333091 0.0
    vertex 4160.937699473215 -3412.7875009513705 0.0
  endloop
endfacet
facet normal 0.0 0.0 1.0
  outer loop
    vertex 4160.937699473215 -3412.7875009513705 0.0
    vertex 4169.19180351561 -3415.202582333091 0.0
    vertex 4161.571321944972 -3412.631136842097 0.0
  endloop
endfacet
facet normal 0.0 0.0 1.0
  outer loop
    vertex 4161.571321944972 -3412.631136842097 0.0
    vertex 4169.19180351561 -3415.202582333091 0.0
    vertex 4162.142884245111 -3412.3161071475497 0.0
  endloop
endfacet
facet normal 0.0 0.0 1.0
  outer loop
    vertex 4162.142884245111 -3412.3161071475497 0.0
    vertex 4169.19180351561 -3415.202582333091 0.0
    vertex 4162.613435347427 -3411.8638806208023 0.0
  endloop
endfacet
facet normal 0.0 0.0 1.0
  outer loop
    vertex 4162.613435347427 -3411.8638806208023 0.0
    vertex 4169.19180351561 -3415.202582333091 0.0
    vertex 4162.95090797192 -3411.3052757523083 0.0
  endloop
endfacet
facet normal 0.0 0.0 1.0
  outer loop
    vertex 4162.95090797192 -3411.3052757523083 0.0
    vertex 4169.19180351561 -3415.202582333091 0.0
    vertex 4163.132303916928 -3410.678360540721 0.0
  endloop
endfacet
facet normal 0.0 0.0 1.0
  outer loop
    vertex 4163.132303916928 -3410.678360540721 0.0
    vertex 4169.19180351561 -3415.202582333091 0.0
    vertex 4163.138782632752 -3410.352109381201 0.0
  endloop
endfacet
facet normal 0.0 0.0 1.0
  outer loop
    vertex 4163.138782632752 -3410.352109381201 0.0
    vertex 4169.19180351561 -3415.202582333091 0.0
    vertex 4163.145261348574 -3410.025858221681 0.0
  endloop
endfacet
facet normal 0.0 0.0 1.0
  outer loop
    vertex 4153.19180351561 -3405.202582333091 0.0
    vertex 4159.749996147125 -3407.9746604555903 0.0
    vertex 4169.19180351561 -3405.202582333091 0.0
  endloop
endfacet
facet normal 0.0 0.0 1.0
  outer loop
    vertex 4159.749996147125 -3407.9746604555903 0.0
    vertex 4153.19180351561 -3405.202582333091 0.0
    vertex 4159.178433846985 -3408.289690150138 0.0
  endloop
endfacet
facet normal 0.0 0.0 1.0
  outer loop
    vertex 4159.178433846985 -3408.289690150138 0.0
    vertex 4153.19180351561 -3405.202582333091 0.0
    vertex 4158.707882744671 -3408.741916676887 0.0
  endloop
endfacet
facet normal 0.0 0.0 1.0
  outer loop
    vertex 4158.707882744671 -3408.741916676887 0.0
    vertex 4153.19180351561 -3405.202582333091 0.0
    vertex 4158.370410120178 -3409.3005215453823 0.0
  endloop
endfacet
facet normal 0.0 0.0 1.0
  outer loop
    vertex 4158.370410120178 -3409.3005215453823 0.0
    vertex 4153.19180351561 -3405.202582333091 0.0
    vertex 4158.189014175167 -3409.927436756971 0.0
  endloop
endfacet
facet normal 0.0 0.0 1.0
  outer loop
    vertex 4158.189014175167 -3409.927436756971 0.0
    vertex 4153.19180351561 -3405.202582333091 0.0
    vertex 4158.176056743522 -3410.5799390760108 0.0
  endloop
endfacet
facet normal 0.0 0.0 1.0
  outer loop
    vertex 4158.189014175167 -3409.927436756971 0.0
    vertex 4158.176056743522 -3410.5799390760108 0.0
    vertex 4158.182535459345 -3410.253687916491 0.0
  endloop
endfacet
facet normal 0.0 0.0 1.0
  outer loop
    vertex 4169.19180351561 -3405.202582333091 0.0
    vertex 4159.749996147125 -3407.9746604555903 0.0
    vertex 4160.383618618885 -3407.8182963463187 0.0
  endloop
endfacet
facet normal 0.0 0.0 1.0
  outer loop
    vertex 4169.19180351561 -3405.202582333091 0.0
    vertex 4160.383618618885 -3407.8182963463187 0.0
    vertex 4161.036120937924 -3407.831253777964 0.0
  endloop
endfacet
facet normal 0.0 0.0 1.0
  outer loop
    vertex 4169.19180351561 -3405.202582333091 0.0
    vertex 4161.036120937924 -3407.831253777964 0.0
    vertex 4161.663036149513 -3408.0126497229744 0.0
  endloop
endfacet
facet normal 0.0 0.0 1.0
  outer loop
    vertex 4169.19180351561 -3405.202582333091 0.0
    vertex 4161.663036149513 -3408.0126497229744 0.0
    vertex 4162.221641018006 -3408.3501223474677 0.0
  endloop
endfacet
facet normal 0.0 0.0 1.0
  outer loop
    vertex 4169.19180351561 -3405.202582333091 0.0
    vertex 4162.221641018006 -3408.3501223474677 0.0
    vertex 4162.673867544755 -3408.820673449782 0.0
  endloop
endfacet
facet normal 0.0 0.0 1.0
  outer loop
    vertex 4169.19180351561 -3405.202582333091 0.0
    vertex 4162.673867544755 -3408.820673449782 0.0
    vertex 4162.988897239302 -3409.392235749921 0.0
  endloop
endfacet
facet normal 0.0 0.0 1.0
  outer loop
    vertex 4169.19180351561 -3405.202582333091 0.0
    vertex 4162.988897239302 -3409.392235749921 0.0
    vertex 4163.145261348574 -3410.025858221681 0.0
  endloop
endfacet
facet normal 0.0 0.0 1.0
  outer loop
    vertex 4169.19180351561 -3405.202582333091 0.0
    vertex 4163.145261348574 -3410.025858221681 0.0
    vertex 4169.19180351561 -3415.202582333091 0.0
  endloop
endfacet
facet normal 0.0 -1.0 0.0
  outer loop
    vertex 4169.19180351561 -3405.202582333091 20.000000000000004
    vertex 4153.19180351561 -3405.202582333091 0.0
    vertex 4169.19180351561 -3405.202582333091 0.0
  endloop
endfacet
facet normal 0.0 -1.0 0.0
  outer loop
    vertex 4153.19180351561 -3405.202582333091 0.0
    vertex 4169.19180351561 -3405.202582333091 20.000000000000004
    vertex 4153.19180351561 -3405.202582333091 20.000000000000004
  endloop
endfacet
facet normal 0.0 0.7705132427755842 -0.6374239897489378
  outer loop
    vertex 4151.19180351561 -3404.539463372466 -4.11449676604678
    vertex 4171.19180351561 -3405.0998019411413 -4.79182974150034
    vertex 4151.19180351561 -3405.0998019411413 -4.79182974150034
  endloop
endfacet
facet normal 0.0 0.7705132427755842 -0.6374239897489378
  outer loop
    vertex 4171.19180351561 -3405.0998019411413 -4.79182974150034
    vertex 4151.19180351561 -3404.539463372466 -4.11449676604678
    vertex 4171.19180351561 -3404.539463372466 -4.11449676604678
  endloop
endfacet
facet normal -0.0 -0.8443279255018923 -0.5358267949791902
  outer loop
    vertex 4171.19180351561 -3416.3367290933984 -3.3722757187120656
    vertex 4151.19180351561 -3415.8657012937156 -4.114496766047369
    vertex 4171.19180351561 -3415.8657012937156 -4.114496766047369
  endloop
endfacet
facet normal -0.0 -0.8443279255018923 -0.5358267949791902
  outer loop
    vertex 4151.19180351561 -3415.8657012937156 -4.114496766047369
    vertex 4171.19180351561 -3416.3367290933984 -3.3722757187120656
    vertex 4151.19180351561 -3416.3367290933984 -3.3722757187120656
  endloop
endfacet
facet normal 1.328412437790799e-14 0.24868988716492577 -0.9685831611286129
  outer loop
    vertex 4171.19180351561 -3408.039463372466 -6.6573956140658055
    vertex 4162.221641018005 -3408.3501223474664 -6.737159281802619
    vertex 4161.707419705573 -3408.039463372466 -6.657395614065908
  endloop
endfacet
facet normal 1.328412437790799e-14 0.24868988716492577 -0.9685831611286129
  outer loop
    vertex 4162.221641018005 -3408.3501223474664 -6.737159281802619
    vertex 4171.19180351561 -3408.039463372466 -6.6573956140658055
    vertex 4162.447754281379 -3408.585397898624 -6.797567776001382
  endloop
endfacet
facet normal 1.328412437790799e-14 0.24868988716492577 -0.9685831611286129
  outer loop
    vertex 4162.447754281379 -3408.585397898624 -6.797567776001382
    vertex 4171.19180351561 -3408.039463372466 -6.6573956140658055
    vertex 4162.673867544753 -3408.8206734497817 -6.857976270200146
  endloop
endfacet
facet normal 1.328412437790799e-14 0.24868988716492577 -0.9685831611286129
  outer loop
    vertex 4162.673867544753 -3408.8206734497817 -6.857976270200146
    vertex 4171.19180351561 -3408.039463372466 -6.6573956140658055
    vertex 4162.712581758955 -3408.8909131309906 -6.876010755100686
  endloop
endfacet
facet normal 1.328412437790799e-14 0.24868988716492577 -0.9685831611286129
  outer loop
    vertex 4162.712581758955 -3408.8909131309906 -6.876010755100686
    vertex 4171.19180351561 -3408.039463372466 -6.6573956140658055
    vertex 4171.19180351561 -3408.8909131309906 -6.876010755100602
  endloop
endfacet
facet normal 1.114972094036163e-30 -0.4817536741017247 -0.8763066800438586
  outer loop
    vertex 4171.19180351561 -3413.1830373740468 -6.3337893672621215
    vertex 4151.19180351561 -3413.953369897944 -5.910295478514117
    vertex 4151.19180351561 -3413.1830373740468 -6.3337893672621215
  endloop
endfacet
facet normal 1.114972094036163e-30 -0.4817536741017247 -0.8763066800438586
  outer loop
    vertex 4151.19180351561 -3413.953369897944 -5.910295478514117
    vertex 4171.19180351561 -3413.1830373740468 -6.3337893672621215
    vertex 4171.19180351561 -3413.953369897944 -5.910295478514117
  endloop
endfacet
facet normal 0.0 -0.6845471059284159 -0.7289686274216678
  outer loop
    vertex 4171.19180351561 -3414.664550261332 -5.393592699430558
    vertex 4151.19180351561 -3415.305362725041 -4.7918297415008695
    vertex 4151.19180351561 -3414.664550261332 -5.393592699430558
  endloop
endfacet
facet normal 0.0 -0.6845471059284159 -0.7289686274216678
  outer loop
    vertex 4151.19180351561 -3415.305362725041 -4.7918297415008695
    vertex 4171.19180351561 -3414.664550261332 -5.393592699430558
    vertex 4171.19180351561 -3415.305362725041 -4.7918297415008695
  endloop
endfacet
facet normal 0.0 0.6845471059288666 -0.7289686274212445
  outer loop
    vertex 4171.19180351561 -3405.0998019411413 -4.79182974150034
    vertex 4151.19180351561 -3405.74061440485 -5.393592699430096
    vertex 4151.19180351561 -3405.0998019411413 -4.79182974150034
  endloop
endfacet
facet normal 0.0 0.6845471059288666 -0.7289686274212445
  outer loop
    vertex 4151.19180351561 -3405.74061440485 -5.393592699430096
    vertex 4171.19180351561 -3405.0998019411413 -4.79182974150034
    vertex 4171.19180351561 -3405.74061440485 -5.393592699430096
  endloop
endfacet
facet normal -1.4044986771313102e-14 -0.24868988716479443 -0.9685831611286466
  outer loop
    vertex 4158.4981530483365 -3411.5142515351913 -6.876010755100866
    vertex 4151.19180351561 -3412.3657012937156 -6.6573956140660275
    vertex 4151.19180351561 -3411.5142515351913 -6.876010755100737
  endloop
endfacet
facet normal -1.4044986771313102e-14 -0.24868988716479443 -0.9685831611286466
  outer loop
    vertex 4151.19180351561 -3412.3657012937156 -6.6573956140660275
    vertex 4158.4981530483365 -3411.5142515351913 -6.876010755100866
    vertex 4158.64745054734 -3411.785123847906 -6.806462565963717
  endloop
endfacet
facet normal -1.4044986771313102e-14 -0.24868988716479443 -0.9685831611286466
  outer loop
    vertex 4151.19180351561 -3412.3657012937156 -6.6573956140660275
    vertex 4158.64745054734 -3411.785123847906 -6.806462565963717
    vertex 4159.099677074089 -3412.2556749502214 -6.68564557756637
  endloop
endfacet
facet normal -1.4044986771313102e-14 -0.24868988716479443 -0.9685831611286466
  outer loop
    vertex 4151.19180351561 -3412.3657012937156 -6.6573956140660275
    vertex 4159.099677074089 -3412.2556749502214 -6.68564557756637
    vertex 4159.281799257275 -3412.3657012937156 -6.6573956140661785
  endloop
endfacet
facet normal 2.2290086428878556e-16 0.1253332335643359 -0.9921147013144739
  outer loop
    vertex 4158.617868805943 -3408.890913130991 -6.876010755100686
    vertex 4151.19180351561 -3409.763048696386 -6.986187098997729
    vertex 4151.19180351561 -3408.8909131309906 -6.876010755100602
  endloop
endfacet
facet normal 2.2290086428878556e-16 0.1253332335643359 -0.9921147013144739
  outer loop
    vertex 4151.19180351561 -3409.763048696386 -6.986187098997729
    vertex 4158.617868805943 -3408.890913130991 -6.876010755100686
    vertex 4158.370410120178 -3409.3005215453827 -6.927756331497053
  endloop
endfacet
facet normal 2.2290086428878556e-16 0.1253332335643359 -0.9921147013144739
  outer loop
    vertex 4151.19180351561 -3409.763048696386 -6.986187098997729
    vertex 4158.370410120178 -3409.3005215453827 -6.927756331497053
    vertex 4158.236579343546 -3409.763048696386 -6.9861870989977675
  endloop
endfacet
facet normal 0.0 0.84432792550228 -0.5358267949785794
  outer loop
    vertex 4151.19180351561 -3404.068435572784 -3.3722757187114274
    vertex 4171.19180351561 -3404.539463372466 -4.11449676604678
    vertex 4151.19180351561 -3404.539463372466 -4.11449676604678
  endloop
endfacet
facet normal 0.0 0.84432792550228 -0.5358267949785794
  outer loop
    vertex 4171.19180351561 -3404.539463372466 -4.11449676604678
    vertex 4151.19180351561 -3404.068435572784 -3.3722757187114274
    vertex 4171.19180351561 -3404.068435572784 -3.3722757187114274
  endloop
endfacet
facet normal 6.269022169590266e-15 -0.12533323356421106 -0.9921147013144896
  outer loop
    vertex 4162.95090797192 -3411.305275752307 -6.9024105358628525
    vertex 4171.19180351561 -3411.5142515351913 -6.876010755100737
    vertex 4162.824658435114 -3411.5142515351904 -6.876010755100866
  endloop
endfacet
facet normal 6.269022169590266e-15 -0.12533323356421106 -0.9921147013144896
  outer loop
    vertex 4171.19180351561 -3411.5142515351913 -6.876010755100737
    vertex 4162.95090797192 -3411.305275752307 -6.9024105358628525
    vertex 4163.132303916928 -3410.6783605407204 -6.981608344880878
  endloop
endfacet
facet normal 6.269022169590266e-15 -0.12533323356421106 -0.9921147013144896
  outer loop
    vertex 4171.19180351561 -3411.5142515351913 -6.876010755100737
    vertex 4163.132303916928 -3410.6783605407204 -6.981608344880878
    vertex 4163.133023663873 -3410.6421159697966 -6.9861870989977675
  endloop
endfacet
facet normal 6.269022169590266e-15 -0.12533323356421106 -0.9921147013144896
  outer loop
    vertex 4171.19180351561 -3411.5142515351913 -6.876010755100737
    vertex 4163.133023663873 -3410.6421159697966 -6.9861870989977675
    vertex 4171.19180351561 -3410.642115969796 -6.986187098997775
  endloop
endfacet
facet normal 2.058711619735212e-30 0.5877852522926443 -0.809016994374823
  outer loop
    vertex 4171.19180351561 -3405.74061440485 -5.393592699430096
    vertex 4151.19180351561 -3406.4517947682375 -5.9102954785137305
    vertex 4151.19180351561 -3405.74061440485 -5.393592699430096
  endloop
endfacet
facet normal 2.058711619735212e-30 0.5877852522926443 -0.809016994374823
  outer loop
    vertex 4151.19180351561 -3406.4517947682375 -5.9102954785137305
    vertex 4171.19180351561 -3405.74061440485 -5.393592699430096
    vertex 4171.19180351561 -3406.4517947682375 -5.9102954785137305
  endloop
endfacet
facet normal -0.0 -0.9822872507286297 -0.18738131458603488
  outer loop
    vertex 4171.19180351561 -3417.147385242293 -0.8773326349501537
    vertex 4151.19180351561 -3416.9826644609916 -1.7408292101540255
    vertex 4171.19180351561 -3416.9826644609916 -1.7408292101540255
  endloop
endfacet
facet normal -0.0 -0.9822872507286297 -0.18738131458603488
  outer loop
    vertex 4151.19180351561 -3416.9826644609916 -1.7408292101540255
    vertex 4171.19180351561 -3417.147385242293 -0.8773326349501537
    vertex 4151.19180351561 -3417.147385242293 -0.8773326349501537
  endloop
endfacet
facet normal 0.0 0.48175367410179426 -0.8763066800438202
  outer loop
    vertex 4171.19180351561 -3406.4517947682375 -5.9102954785137305
    vertex 4151.19180351561 -3407.222127292135 -6.333789367261815
    vertex 4151.19180351561 -3406.4517947682375 -5.9102954785137305
  endloop
endfacet
facet normal 0.0 0.48175367410179426 -0.8763066800438202
  outer loop
    vertex 4151.19180351561 -3407.222127292135 -6.333789367261815
    vertex 4171.19180351561 -3406.4517947682375 -5.9102954785137305
    vertex 4171.19180351561 -3407.222127292135 -6.333789367261815
  endloop
endfacet
facet normal 1.1317886820672423e-18 -0.5877852522925882 -0.809016994374864
  outer loop
    vertex 4171.19180351561 -3413.953369897944 -5.910295478514117
    vertex 4151.19180351561 -3414.664550261332 -5.393592699430558
    vertex 4151.19180351561 -3413.953369897944 -5.910295478514117
  endloop
endfacet
facet normal 1.1317886820672423e-18 -0.5877852522925882 -0.809016994374864
  outer loop
    vertex 4151.19180351561 -3414.664550261332 -5.393592699430558
    vertex 4171.19180351561 -3413.953369897944 -5.910295478514117
    vertex 4171.19180351561 -3414.664550261332 -5.393592699430558
  endloop
endfacet
facet normal 1.1548238854913663e-15 2.858609014865901e-14 -1.0
  outer loop
    vertex 4171.19180351561 -3409.763048696386 -6.986187098997729
    vertex 4163.145261348574 -3410.025858221681 -6.9861870989977435
    vertex 4163.080405730027 -3409.763048696386 -6.9861870989977675
  endloop
endfacet
facet normal 1.1548238854913663e-15 2.858609014865901e-14 -1.0
  outer loop
    vertex 4163.145261348574 -3410.025858221681 -6.9861870989977435
    vertex 4171.19180351561 -3410.642115969796 -6.986187098997775
    vertex 4163.133023663873 -3410.6421159697966 -6.9861870989977675
  endloop
endfacet
facet normal 1.1548238854913663e-15 2.858609014865901e-14 -1.0
  outer loop
    vertex 4171.19180351561 -3410.642115969796 -6.986187098997775
    vertex 4163.145261348574 -3410.025858221681 -6.9861870989977435
    vertex 4171.19180351561 -3409.763048696386 -6.986187098997729
  endloop
endfacet
facet normal 0.0 0.9048270524658151 -0.4257792915655076
  outer loop
    vertex 4151.19180351561 -3403.694146931873 -2.57687186879212
    vertex 4171.19180351561 -3404.068435572784 -3.3722757187114274
    vertex 4151.19180351561 -3404.068435572784 -3.3722757187114274
  endloop
endfacet
facet normal 0.0 0.9048270524658151 -0.4257792915655076
  outer loop
    vertex 4171.19180351561 -3404.068435572784 -3.3722757187114274
    vertex 4151.19180351561 -3403.694146931873 -2.57687186879212
    vertex 4171.19180351561 -3403.694146931873 -2.57687186879212
  endloop
endfacet
facet normal 7.537253618678122e-15 0.12533323356428552 -0.9921147013144802
  outer loop
    vertex 4171.19180351561 -3408.8909131309906 -6.876010755100602
    vertex 4162.988897239302 -3409.392235749921 -6.939342529951112
    vertex 4162.712581758955 -3408.8909131309906 -6.876010755100686
  endloop
endfacet
facet normal 7.537253618678122e-15 0.12533323356428552 -0.9921147013144802
  outer loop
    vertex 4162.988897239302 -3409.392235749921 -6.939342529951112
    vertex 4171.19180351561 -3408.8909131309906 -6.876010755100602
    vertex 4163.080405730027 -3409.763048696386 -6.9861870989977675
  endloop
endfacet
facet normal 7.537253618678122e-15 0.12533323356428552 -0.9921147013144802
  outer loop
    vertex 4163.080405730027 -3409.763048696386 -6.9861870989977675
    vertex 4171.19180351561 -3408.8909131309906 -6.876010755100602
    vertex 4171.19180351561 -3409.763048696386 -6.986187098997729
  endloop
endfacet
facet normal 0.0 0.9510565162953357 -0.30901699437438734
  outer loop
    vertex 4151.19180351561 -3403.4225002051908 -1.7408292101533176
    vertex 4171.19180351561 -3403.694146931873 -2.57687186879212
    vertex 4151.19180351561 -3403.694146931873 -2.57687186879212
  endloop
endfacet
facet normal 0.0 0.9510565162953357 -0.30901699437438734
  outer loop
    vertex 4171.19180351561 -3403.694146931873 -2.57687186879212
    vertex 4151.19180351561 -3403.4225002051908 -1.7408292101533176
    vertex 4171.19180351561 -3403.4225002051908 -1.7408292101533176
  endloop
endfacet
facet normal 0.0 -0.9980267284283011 -0.06279051952884376
  outer loop
    vertex 4171.19180351561 -3417.202582333091 0.0
    vertex 4151.19180351561 -3417.147385242293 -0.8773326349501537
    vertex 4171.19180351561 -3417.147385242293 -0.8773326349501537
  endloop
endfacet
facet normal 0.0 -0.9980267284283011 -0.06279051952884376
  outer loop
    vertex 4151.19180351561 -3417.147385242293 -0.8773326349501537
    vertex 4171.19180351561 -3417.202582333091 0.0
    vertex 4151.19180351561 -3417.202582333091 0.0
  endloop
endfacet
facet normal 8.726294894443526e-20 0.9980267284282465 -0.06279051952971353
  outer loop
    vertex 4151.19180351561 -3403.2025823330905 0.0
    vertex 4171.19180351561 -3403.2577794238896 -0.8773326349494276
    vertex 4151.19180351561 -3403.2577794238896 -0.8773326349494276
  endloop
endfacet
facet normal 8.726294894443526e-20 0.9980267284282465 -0.06279051952971353
  outer loop
    vertex 4171.19180351561 -3403.2577794238896 -0.8773326349494276
    vertex 4151.19180351561 -3403.2025823330905 0.0
    vertex 4171.19180351561 -3403.2025823330905 0.0
  endloop
endfacet
facet normal -0.0 -0.9510565162950911 -0.3090169943751399
  outer loop
    vertex 4171.19180351561 -3416.9826644609916 -1.7408292101540255
    vertex 4151.19180351561 -3416.711017734309 -2.576871868792799
    vertex 4171.19180351561 -3416.711017734309 -2.576871868792799
  endloop
endfacet
facet normal -0.0 -0.9510565162950911 -0.3090169943751399
  outer loop
    vertex 4151.19180351561 -3416.711017734309 -2.576871868792799
    vertex 4171.19180351561 -3416.9826644609916 -1.7408292101540255
    vertex 4151.19180351561 -3416.9826644609916 -1.7408292101540255
  endloop
endfacet
facet normal 0.0 0.9822872507286303 -0.18738131458603097
  outer loop
    vertex 4151.19180351561 -3403.2577794238896 -0.8773326349494276
    vertex 4171.19180351561 -3403.4225002051908 -1.7408292101533176
    vertex 4151.19180351561 -3403.4225002051908 -1.7408292101533176
  endloop
endfacet
facet normal 0.0 0.9822872507286303 -0.18738131458603097
  outer loop
    vertex 4171.19180351561 -3403.4225002051908 -1.7408292101533176
    vertex 4151.19180351561 -3403.2577794238896 -0.8773326349494276
    vertex 4171.19180351561 -3403.2577794238896 -0.8773326349494276
  endloop
endfacet
facet normal -1.0 0.0 0.0
  outer loop
    vertex 4151.19180351561 -3403.2025823330905 0.0
    vertex 4151.19180351561 -3417.147385242293 -0.8773326349501537
    vertex 4151.19180351561 -3417.202582333091 0.0
  endloop
endfacet
facet normal -1.0 0.0 0.0
  outer loop
    vertex 4151.19180351561 -3417.147385242293 -0.8773326349501537
    vertex 4151.19180351561 -3403.2025823330905 0.0
    vertex 4151.19180351561 -3416.9826644609916 -1.7408292101540255
  endloop
endfacet
facet normal -1.0 0.0 0.0
  outer loop
    vertex 4151.19180351561 -3416.9826644609916 -1.7408292101540255
    vertex 4151.19180351561 -3403.2025823330905 0.0
    vertex 4151.19180351561 -3416.711017734309 -2.576871868792799
  endloop
endfacet
facet normal -1.0 0.0 0.0
  outer loop
    vertex 4151.19180351561 -3416.711017734309 -2.576871868792799
    vertex 4151.19180351561 -3403.2025823330905 0.0
    vertex 4151.19180351561 -3416.3367290933984 -3.3722757187120656
  endloop
endfacet
facet normal -1.0 0.0 0.0
  outer loop
    vertex 4151.19180351561 -3416.3367290933984 -3.3722757187120656
    vertex 4151.19180351561 -3403.2025823330905 0.0
    vertex 4151.19180351561 -3415.8657012937156 -4.114496766047369
  endloop
endfacet
facet normal -1.0 0.0 0.0
  outer loop
    vertex 4151.19180351561 -3415.8657012937156 -4.114496766047369
    vertex 4151.19180351561 -3403.2025823330905 0.0
    vertex 4151.19180351561 -3415.305362725041 -4.7918297415008695
  endloop
endfacet
facet normal -1.0 0.0 0.0
  outer loop
    vertex 4151.19180351561 -3415.305362725041 -4.7918297415008695
    vertex 4151.19180351561 -3403.2025823330905 0.0
    vertex 4151.19180351561 -3414.664550261332 -5.393592699430558
  endloop
endfacet
facet normal -1.0 0.0 0.0
  outer loop
    vertex 4151.19180351561 -3414.664550261332 -5.393592699430558
    vertex 4151.19180351561 -3403.2025823330905 0.0
    vertex 4151.19180351561 -3413.953369897944 -5.910295478514117
  endloop
endfacet
facet normal -1.0 0.0 0.0
  outer loop
    vertex 4151.19180351561 -3413.953369897944 -5.910295478514117
    vertex 4151.19180351561 -3403.2025823330905 0.0
    vertex 4151.19180351561 -3413.1830373740468 -6.3337893672621215
  endloop
endfacet
facet normal -1.0 0.0 0.0
  outer loop
    vertex 4151.19180351561 -3413.1830373740468 -6.3337893672621215
    vertex 4151.19180351561 -3403.2025823330905 0.0
    vertex 4151.19180351561 -3412.3657012937156 -6.6573956140660275
  endloop
endfacet
facet normal -1.0 0.0 0.0
  outer loop
    vertex 4151.19180351561 -3412.3657012937156 -6.6573956140660275
    vertex 4151.19180351561 -3403.2025823330905 0.0
    vertex 4151.19180351561 -3411.5142515351913 -6.876010755100737
  endloop
endfacet
facet normal -1.0 0.0 0.0
  outer loop
    vertex 4151.19180351561 -3411.5142515351913 -6.876010755100737
    vertex 4151.19180351561 -3403.2025823330905 0.0
    vertex 4151.19180351561 -3410.642115969796 -6.986187098997775
  endloop
endfacet
facet normal -1.0 0.0 0.0
  outer loop
    vertex 4151.19180351561 -3410.642115969796 -6.986187098997775
    vertex 4151.19180351561 -3403.2025823330905 0.0
    vertex 4151.19180351561 -3409.763048696386 -6.986187098997729
  endloop
endfacet
facet normal -1.0 0.0 0.0
  outer loop
    vertex 4151.19180351561 -3409.763048696386 -6.986187098997729
    vertex 4151.19180351561 -3403.2025823330905 0.0
    vertex 4151.19180351561 -3408.8909131309906 -6.876010755100602
  endloop
endfacet
facet normal -1.0 0.0 0.0
  outer loop
    vertex 4151.19180351561 -3408.8909131309906 -6.876010755100602
    vertex 4151.19180351561 -3403.2025823330905 0.0
    vertex 4151.19180351561 -3408.039463372466 -6.6573956140658055
  endloop
endfacet
facet normal -1.0 0.0 0.0
  outer loop
    vertex 4151.19180351561 -3408.039463372466 -6.6573956140658055
    vertex 4151.19180351561 -3403.2025823330905 0.0
    vertex 4151.19180351561 -3407.222127292135 -6.333789367261815
  endloop
endfacet
facet normal -1.0 0.0 0.0
  outer loop
    vertex 4151.19180351561 -3407.222127292135 -6.333789367261815
    vertex 4151.19180351561 -3403.2025823330905 0.0
    vertex 4151.19180351561 -3406.4517947682375 -5.9102954785137305
  endloop
endfacet
facet normal -1.0 0.0 0.0
  outer loop
    vertex 4151.19180351561 -3406.4517947682375 -5.9102954785137305
    vertex 4151.19180351561 -3403.2025823330905 0.0
    vertex 4151.19180351561 -3405.74061440485 -5.393592699430096
  endloop
endfacet
facet normal -1.0 0.0 0.0
  outer loop
    vertex 4151.19180351561 -3405.74061440485 -5.393592699430096
    vertex 4151.19180351561 -3403.2025823330905 0.0
    vertex 4151.19180351561 -3405.0998019411413 -4.79182974150034
  endloop
endfacet
facet normal -1.0 0.0 0.0
  outer loop
    vertex 4151.19180351561 -3405.0998019411413 -4.79182974150034
    vertex 4151.19180351561 -3403.2025823330905 0.0
    vertex 4151.19180351561 -3404.539463372466 -4.11449676604678
  endloop
endfacet
facet normal -1.0 0.0 0.0
  outer loop
    vertex 4151.19180351561 -3404.539463372466 -4.11449676604678
    vertex 4151.19180351561 -3403.2025823330905 0.0
    vertex 4151.19180351561 -3404.068435572784 -3.3722757187114274
  endloop
endfacet
facet normal -1.0 0.0 0.0
  outer loop
    vertex 4151.19180351561 -3404.068435572784 -3.3722757187114274
    vertex 4151.19180351561 -3403.2025823330905 0.0
    vertex 4151.19180351561 -3403.694146931873 -2.57687186879212
  endloop
endfacet
facet normal -1.0 0.0 0.0
  outer loop
    vertex 4151.19180351561 -3403.694146931873 -2.57687186879212
    vertex 4151.19180351561 -3403.2025823330905 0.0
    vertex 4151.19180351561 -3403.4225002051908 -1.7408292101533176
  endloop
endfacet
facet normal -1.0 0.0 0.0
  outer loop
    vertex 4151.19180351561 -3403.4225002051908 -1.7408292101533176
    vertex 4151.19180351561 -3403.2025823330905 0.0
    vertex 4151.19180351561 -3403.2577794238896 -0.8773326349494276
  endloop
endfacet
facet normal 0.0 1.0 0.0
  outer loop
    vertex 4153.19180351561 -3415.202582333091 20.000000000000004
    vertex 4169.19180351561 -3415.202582333091 0.0
    vertex 4153.19180351561 -3415.202582333091 0.0
  endloop
endfacet
facet normal 0.0 1.0 0.0
  outer loop
    vertex 4169.19180351561 -3415.202582333091 0.0
    vertex 4153.19180351561 -3415.202582333091 20.000000000000004
    vertex 4169.19180351561 -3415.202582333091 20.000000000000004
  endloop
endfacet
facet normal 0.0 1.0 0.0
  outer loop
    vertex 4151.19180351561 -3403.2025823330905 20.000000000000004
    vertex 4171.19180351561 -3403.2025823330905 0.0
    vertex 4151.19180351561 -3403.2025823330905 0.0
  endloop
endfacet
facet normal 0.0 1.0 0.0
  outer loop
    vertex 4171.19180351561 -3403.2025823330905 0.0
    vertex 4151.19180351561 -3403.2025823330905 20.000000000000004
    vertex 4171.19180351561 -3403.2025823330905 20.000000000000004
  endloop
endfacet
facet normal 1.0 0.0 0.0
  outer loop
    vertex 4171.19180351561 -3403.2025823330905 0.0
    vertex 4171.19180351561 -3417.202582333091 20.000000000000004
    vertex 4171.19180351561 -3417.202582333091 0.0
  endloop
endfacet
facet normal 1.0 0.0 0.0
  outer loop
    vertex 4171.19180351561 -3417.202582333091 20.000000000000004
    vertex 4171.19180351561 -3403.2025823330905 0.0
    vertex 4171.19180351561 -3403.2025823330905 20.000000000000004
  endloop
endfacet
facet normal 1.0 0.0 0.0
  outer loop
    vertex 4153.19180351561 -3405.202582333091 0.0
    vertex 4153.19180351561 -3415.202582333091 20.000000000000004
    vertex 4153.19180351561 -3415.202582333091 0.0
  endloop
endfacet
facet normal 1.0 0.0 0.0
  outer loop
    vertex 4153.19180351561 -3415.202582333091 20.000000000000004
    vertex 4153.19180351561 -3405.202582333091 0.0
    vertex 4153.19180351561 -3405.202582333091 20.000000000000004
  endloop
endfacet
facet normal 0.0 0.0 1.0
  outer loop
    vertex 4151.19180351561 -3417.202582333091 20.000000000000004
    vertex 4153.19180351561 -3415.202582333091 20.000000000000004
    vertex 4151.19180351561 -3403.2025823330905 20.000000000000004
  endloop
endfacet
facet normal 0.0 0.0 1.0
  outer loop
    vertex 4153.19180351561 -3415.202582333091 20.000000000000004
    vertex 4151.19180351561 -3417.202582333091 20.000000000000004
    vertex 4171.19180351561 -3417.202582333091 20.000000000000004
  endloop
endfacet
facet normal 0.0 0.0 1.0
  outer loop
    vertex 4153.19180351561 -3415.202582333091 20.000000000000004
    vertex 4171.19180351561 -3417.202582333091 20.000000000000004
    vertex 4169.19180351561 -3415.202582333091 20.000000000000004
  endloop
endfacet
facet normal 0.0 0.0 1.0
  outer loop
    vertex 4169.19180351561 -3415.202582333091 20.000000000000004
    vertex 4171.19180351561 -3417.202582333091 20.000000000000004
    vertex 4169.19180351561 -3405.202582333091 20.000000000000004
  endloop
endfacet
facet normal 0.0 0.0 1.0
  outer loop
    vertex 4151.19180351561 -3403.2025823330905 20.000000000000004
    vertex 4153.19180351561 -3405.202582333091 20.000000000000004
    vertex 4171.19180351561 -3403.2025823330905 20.000000000000004
  endloop
endfacet
facet normal 0.0 0.0 1.0
  outer loop
    vertex 4153.19180351561 -3405.202582333091 20.000000000000004
    vertex 4151.19180351561 -3403.2025823330905 20.000000000000004
    vertex 4153.19180351561 -3415.202582333091 20.000000000000004
  endloop
endfacet
facet normal 0.0 0.0 1.0
  outer loop
    vertex 4171.19180351561 -3403.2025823330905 20.000000000000004
    vertex 4153.19180351561 -3405.202582333091 20.000000000000004
    vertex 4169.19180351561 -3405.202582333091 20.000000000000004
  endloop
endfacet
facet normal 0.0 0.0 1.0
  outer loop
    vertex 4171.19180351561 -3403.2025823330905 20.000000000000004
    vertex 4169.19180351561 -3405.202582333091 20.000000000000004
    vertex 4171.19180351561 -3417.202582333091 20.000000000000004
  endloop
endfacet
facet normal 0.0 -1.0 0.0
  outer loop
    vertex 4171.19180351561 -3417.202582333091 20.000000000000004
    vertex 4151.19180351561 -3417.202582333091 0.0
    vertex 4171.19180351561 -3417.202582333091 0.0
  endloop
endfacet
facet normal 0.0 -1.0 0.0
  outer loop
    vertex 4151.19180351561 -3417.202582333091 0.0
    vertex 4171.19180351561 -3417.202582333091 20.000000000000004
    vertex 4151.19180351561 -3417.202582333091 20.000000000000004
  endloop
endfacet
facet normal -1.0 0.0 0.0
  outer loop
    vertex 4151.19180351561 -3403.2025823330905 20.000000000000004
    vertex 4151.19180351561 -3417.202582333091 0.0
    vertex 4151.19180351561 -3417.202582333091 20.000000000000004
  endloop
endfacet
facet normal -1.0 0.0 0.0
  outer loop
    vertex 4151.19180351561 -3417.202582333091 0.0
    vertex 4151.19180351561 -3403.2025823330905 20.000000000000004
    vertex 4151.19180351561 -3403.2025823330905 0.0
  endloop
endfacet
facet normal -0.0 -0.9048270524661229 -0.4257792915648529
  outer loop
    vertex 4171.19180351561 -3416.711017734309 -2.576871868792799
    vertex 4151.19180351561 -3416.3367290933984 -3.3722757187120656
    vertex 4171.19180351561 -3416.3367290933984 -3.3722757187120656
  endloop
endfacet
facet normal -0.0 -0.9048270524661229 -0.4257792915648529
  outer loop
    vertex 4151.19180351561 -3416.3367290933984 -3.3722757187120656
    vertex 4171.19180351561 -3416.711017734309 -2.576871868792799
    vertex 4151.19180351561 -3416.711017734309 -2.576871868792799
  endloop
endfacet
facet normal 1.077923176439044e-18 -0.7705132427759601 -0.6374239897484832
  outer loop
    vertex 4171.19180351561 -3415.8657012937156 -4.114496766047369
    vertex 4151.19180351561 -3415.305362725041 -4.7918297415008695
    vertex 4171.19180351561 -3415.305362725041 -4.7918297415008695
  endloop
endfacet
facet normal 1.077923176439044e-18 -0.7705132427759601 -0.6374239897484832
  outer loop
    vertex 4151.19180351561 -3415.305362725041 -4.7918297415008695
    vertex 4171.19180351561 -3415.8657012937156 -4.114496766047369
    vertex 4151.19180351561 -3415.8657012937156 -4.114496766047369
  endloop
endfacet
facet normal 1.0 0.0 0.0
  outer loop
    vertex 4171.19180351561 -3417.147385242293 -0.8773326349501537
    vertex 4171.19180351561 -3403.2025823330905 0.0
    vertex 4171.19180351561 -3417.202582333091 0.0
  endloop
endfacet
facet normal 1.0 0.0 0.0
  outer loop
    vertex 4171.19180351561 -3403.2025823330905 0.0
    vertex 4171.19180351561 -3417.147385242293 -0.8773326349501537
    vertex 4171.19180351561 -3416.9826644609916 -1.7408292101540255
  endloop
endfacet
facet normal 1.0 0.0 0.0
  outer loop
    vertex 4171.19180351561 -3403.2025823330905 0.0
    vertex 4171.19180351561 -3416.9826644609916 -1.7408292101540255
    vertex 4171.19180351561 -3416.711017734309 -2.576871868792799
  endloop
endfacet
facet normal 1.0 0.0 0.0
  outer loop
    vertex 4171.19180351561 -3403.2025823330905 0.0
    vertex 4171.19180351561 -3416.711017734309 -2.576871868792799
    vertex 4171.19180351561 -3416.3367290933984 -3.3722757187120656
  endloop
endfacet
facet normal 1.0 0.0 0.0
  outer loop
    vertex 4171.19180351561 -3403.2025823330905 0.0
    vertex 4171.19180351561 -3416.3367290933984 -3.3722757187120656
    vertex 4171.19180351561 -3415.8657012937156 -4.114496766047369
  endloop
endfacet
facet normal 1.0 0.0 0.0
  outer loop
    vertex 4171.19180351561 -3403.2025823330905 0.0
    vertex 4171.19180351561 -3415.8657012937156 -4.114496766047369
    vertex 4171.19180351561 -3415.305362725041 -4.7918297415008695
  endloop
endfacet
facet normal 1.0 0.0 0.0
  outer loop
    vertex 4171.19180351561 -3403.2025823330905 0.0
    vertex 4171.19180351561 -3415.305362725041 -4.7918297415008695
    vertex 4171.19180351561 -3411.5142515351913 -6.876010755100737
  endloop
endfacet
facet normal 1.0 0.0 0.0
  outer loop
    vertex 4171.19180351561 -3403.2025823330905 0.0
    vertex 4171.19180351561 -3411.5142515351913 -6.876010755100737
    vertex 4171.19180351561 -3410.642115969796 -6.986187098997775
  endloop
endfacet
facet normal 1.0 0.0 0.0
  outer loop
    vertex 4171.19180351561 -3403.2025823330905 0.0
    vertex 4171.19180351561 -3410.642115969796 -6.986187098997775
    vertex 4171.19180351561 -3409.763048696386 -6.986187098997729
  endloop
endfacet
facet normal 1.0 0.0 0.0
  outer loop
    vertex 4171.19180351561 -3403.2025823330905 0.0
    vertex 4171.19180351561 -3409.763048696386 -6.986187098997729
    vertex 4171.19180351561 -3408.8909131309906 -6.876010755100602
  endloop
endfacet
facet normal 1.0 0.0 0.0
  outer loop
    vertex 4171.19180351561 -3403.2025823330905 0.0
    vertex 4171.19180351561 -3408.8909131309906 -6.876010755100602
    vertex 4171.19180351561 -3408.039463372466 -6.6573956140658055
  endloop
endfacet
facet normal 1.0 0.0 0.0
  outer loop
    vertex 4171.19180351561 -3403.2025823330905 0.0
    vertex 4171.19180351561 -3408.039463372466 -6.6573956140658055
    vertex 4171.19180351561 -3407.222127292135 -6.333789367261815
  endloop
endfacet
facet normal 1.0 0.0 0.0
  outer loop
    vertex 4171.19180351561 -3403.2025823330905 0.0
    vertex 4171.19180351561 -3407.222127292135 -6.333789367261815
    vertex 4171.19180351561 -3406.4517947682375 -5.9102954785137305
  endloop
endfacet
facet normal 1.0 0.0 0.0
  outer loop
    vertex 4171.19180351561 -3403.2025823330905 0.0
    vertex 4171.19180351561 -3406.4517947682375 -5.9102954785137305
    vertex 4171.19180351561 -3405.74061440485 -5.393592699430096
  endloop
endfacet
facet normal 1.0 0.0 0.0
  outer loop
    vertex 4171.19180351561 -3403.2025823330905 0.0
    vertex 4171.19180351561 -3405.74061440485 -5.393592699430096
    vertex 4171.19180351561 -3405.0998019411413 -4.79182974150034
  endloop
endfacet
facet normal 1.0 0.0 0.0
  outer loop
    vertex 4171.19180351561 -3403.2025823330905 0.0
    vertex 4171.19180351561 -3405.0998019411413 -4.79182974150034
    vertex 4171.19180351561 -3404.539463372466 -4.11449676604678
  endloop
endfacet
facet normal 1.0 0.0 0.0
  outer loop
    vertex 4171.19180351561 -3403.2025823330905 0.0
    vertex 4171.19180351561 -3404.539463372466 -4.11449676604678
    vertex 4171.19180351561 -3404.068435572784 -3.3722757187114274
  endloop
endfacet
facet normal 1.0 0.0 0.0
  outer loop
    vertex 4171.19180351561 -3403.2025823330905 0.0
    vertex 4171.19180351561 -3404.068435572784 -3.3722757187114274
    vertex 4171.19180351561 -3403.694146931873 -2.57687186879212
  endloop
endfacet
facet normal 1.0 0.0 0.0
  outer loop
    vertex 4171.19180351561 -3403.2025823330905 0.0
    vertex 4171.19180351561 -3403.694146931873 -2.57687186879212
    vertex 4171.19180351561 -3403.4225002051908 -1.7408292101533176
  endloop
endfacet
facet normal 1.0 0.0 0.0
  outer loop
    vertex 4171.19180351561 -3403.2025823330905 0.0
    vertex 4171.19180351561 -3403.4225002051908 -1.7408292101533176
    vertex 4171.19180351561 -3403.2577794238896 -0.8773326349494276
  endloop
endfacet
facet normal 8.032853989275156e-15 -0.2486898871646663 -0.9685831611286795
  outer loop
    vertex 4162.142884245111 -3412.3161071475497 -6.670129226531295
    vertex 4171.19180351561 -3412.3657012937156 -6.6573956140660275
    vertex 4162.0529049677725 -3412.3657012937156 -6.657395614066268
  endloop
endfacet
facet normal 8.032853989275156e-15 -0.2486898871646663 -0.9685831611286795
  outer loop
    vertex 4171.19180351561 -3412.3657012937156 -6.6573956140660275
    vertex 4162.142884245111 -3412.3161071475497 -6.670129226531295
    vertex 4162.613435347427 -3411.8638806208023 -6.786241263600583
  endloop
endfacet
facet normal 8.032853989275156e-15 -0.2486898871646663 -0.9685831611286795
  outer loop
    vertex 4171.19180351561 -3412.3657012937156 -6.6573956140660275
    vertex 4162.613435347427 -3411.8638806208023 -6.786241263600583
    vertex 4162.739880472893 -3411.6545810878742 -6.83998024990178
  endloop
endfacet
facet normal 8.032853989275156e-15 -0.2486898871646663 -0.9685831611286795
  outer loop
    vertex 4171.19180351561 -3412.3657012937156 -6.6573956140660275
    vertex 4162.739880472893 -3411.6545810878742 -6.83998024990178
    vertex 4162.824658435114 -3411.5142515351904 -6.876010755100866
  endloop
endfacet
facet normal 8.032853989275156e-15 -0.2486898871646663 -0.9685831611286795
  outer loop
    vertex 4171.19180351561 -3412.3657012937156 -6.6573956140660275
    vertex 4162.824658435114 -3411.5142515351904 -6.876010755100866
    vertex 4171.19180351561 -3411.5142515351913 -6.876010755100737
  endloop
endfacet
facet normal 1.875855602722341e-15 -7.26983811503922e-15 -1.0
  outer loop
    vertex 4158.236579343546 -3409.763048696386 -6.9861870989977675
    vertex 4151.19180351561 -3410.642115969796 -6.986187098997775
    vertex 4151.19180351561 -3409.763048696386 -6.986187098997729
  endloop
endfacet
facet normal 1.875855602722341e-15 -7.26983811503922e-15 -1.0
  outer loop
    vertex 4151.19180351561 -3410.642115969796 -6.986187098997775
    vertex 4158.236579343546 -3409.763048696386 -6.9861870989977675
    vertex 4158.189014175167 -3409.927436756971 -6.986187098997738
  endloop
endfacet
facet normal 1.875855602722341e-15 -7.26983811503922e-15 -1.0
  outer loop
    vertex 4151.19180351561 -3410.642115969796 -6.986187098997775
    vertex 4158.189014175167 -3409.927436756971 -6.986187098997738
    vertex 4158.176056743522 -3410.5799390760108 -6.986187098997772
  endloop
endfacet
facet normal 1.875855602722341e-15 -7.26983811503922e-15 -1.0
  outer loop
    vertex 4158.191400635268 -3410.6421159697966 -6.986187098997678
    vertex 4151.19180351561 -3410.642115969796 -6.986187098997775
    vertex 4158.176056743522 -3410.5799390760108 -6.986187098997772
  endloop
endfacet
facet normal -9.391451030747732e-15 -0.12533323356413278 -0.9921147013144996
  outer loop
    vertex 4158.191400635268 -3410.6421159697966 -6.986187098997678
    vertex 4151.19180351561 -3411.5142515351913 -6.876010755100737
    vertex 4151.19180351561 -3410.642115969796 -6.986187098997775
  endloop
endfacet
facet normal -9.391451030747732e-15 -0.12533323356413278 -0.9921147013144996
  outer loop
    vertex 4151.19180351561 -3411.5142515351913 -6.876010755100737
    vertex 4158.191400635268 -3410.6421159697966 -6.986187098997678
    vertex 4158.332420852794 -3411.2135615477673 -6.913996734317002
  endloop
endfacet
facet normal -9.391451030747732e-15 -0.12533323356413278 -0.9921147013144996
  outer loop
    vertex 4151.19180351561 -3411.5142515351913 -6.876010755100737
    vertex 4158.332420852794 -3411.2135615477673 -6.913996734317002
    vertex 4158.4981530483365 -3411.5142515351913 -6.876010755100866
  endloop
endfacet
facet normal -0.9998028869781707 0.019854147932247445 0.0
  outer loop
    vertex 4163.145261348574 -3410.025858221681 0.0
    vertex 4163.138782632752 -3410.352109381201 -6.569829393791782
    vertex 4163.138782632752 -3410.352109381201 0.0
  endloop
endfacet
facet normal -0.9998028869781707 0.019854147932247445 0.0
  outer loop
    vertex 4163.138782632752 -3410.352109381201 -6.569829393791782
    vertex 4163.145261348574 -3410.025858221681 0.0
    vertex 4163.145261348574 -3410.025858221681 -6.569829393791782
  endloop
endfacet
facet normal -0.9998028869782145 0.019854147930036006 0.0
  outer loop
    vertex 4163.138782632752 -3410.352109381201 0.0
    vertex 4163.132303916928 -3410.678360540721 -6.569829393791782
    vertex 4163.132303916928 -3410.678360540721 0.0
  endloop
endfacet
facet normal -0.9998028869782145 0.019854147930036006 0.0
  outer loop
    vertex 4163.132303916928 -3410.678360540721 -6.569829393791782
    vertex 4163.138782632752 -3410.352109381201 0.0
    vertex 4163.138782632752 -3410.352109381201 -6.569829393791782
  endloop
endfacet
facet normal -0.9605967981222223 0.277945662742441 0.0
  outer loop
    vertex 4163.132303916928 -3410.678360540721 0.0
    vertex 4162.95090797192 -3411.3052757523083 -6.569829393791782
    vertex 4162.95090797192 -3411.3052757523083 0.0
  endloop
endfacet
facet normal -0.9605967981222223 0.277945662742441 0.0
  outer loop
    vertex 4162.95090797192 -3411.3052757523083 -6.569829393791782
    vertex 4163.132303916928 -3410.678360540721 0.0
    vertex 4163.132303916928 -3410.678360540721 -6.569829393791782
  endloop
endfacet
facet normal -0.8559276249350463 0.5170956399671639 0.0
  outer loop
    vertex 4162.95090797192 -3411.3052757523083 0.0
    vertex 4162.613435347427 -3411.8638806208023 -6.569829393791782
    vertex 4162.613435347427 -3411.8638806208023 0.0
  endloop
endfacet
facet normal -0.8559276249350463 0.5170956399671639 0.0
  outer loop
    vertex 4162.613435347427 -3411.8638806208023 -6.569829393791782
    vertex 4162.95090797192 -3411.3052757523083 0.0
    vertex 4162.739880472893 -3411.6545810878742 -6.569829393791782
  endloop
endfacet
facet normal -0.8559276249350463 0.5170956399671639 0.0
  outer loop
    vertex 4162.739880472893 -3411.6545810878742 -6.569829393791782
    vertex 4162.95090797192 -3411.3052757523083 0.0
    vertex 4162.95090797192 -3411.3052757523083 -6.569829393791782
  endloop
endfacet
facet normal -0.6929283985945768 0.7210064038697266 0.0
  outer loop
    vertex 4162.142884245111 -3412.3161071475497 0.0
    vertex 4162.613435347427 -3411.8638806208023 -6.569829393791782
    vertex 4162.142884245111 -3412.3161071475497 -6.569829393791782
  endloop
endfacet
facet normal -0.6929283985945768 0.7210064038697266 0.0
  outer loop
    vertex 4162.613435347427 -3411.8638806208023 -6.569829393791782
    vertex 4162.142884245111 -3412.3161071475497 0.0
    vertex 4162.613435347427 -3411.8638806208023 0.0
  endloop
endfacet
facet normal -0.4827072470115773 0.8757817728649667 8.211585243330297e-18
  outer loop
    vertex 4162.142884245111 -3412.3161071475497 0.0
    vertex 4162.142884245111 -3412.3161071475497 -6.569829393791782
    vertex 4161.571321944972 -3412.631136842097 0.0
  endloop
endfacet
facet normal -0.2395903942551954 0.9708740613388742 -6.813770250924231e-14
  outer loop
    vertex 4160.937699473214 -3412.7875009513705 -6.490393315499775
    vertex 4161.571321944972 -3412.631136842097 0.0
    vertex 4161.571321944971 -3412.6311368420984 -6.552302245931541
  endloop
endfacet
facet normal -0.2395903942551954 0.9708740613388742 -6.813770250924231e-14
  outer loop
    vertex 4161.571321944972 -3412.631136842097 0.0
    vertex 4160.937699473214 -3412.7875009513705 -6.490393315499775
    vertex 4160.937699473215 -3412.7875009513705 0.0
  endloop
endfacet
facet normal 0.019854147928930296 0.9998028869782365 -2.2074494263141418e-15
  outer loop
    vertex 4160.285197154175 -3412.7745435197257 0.0
    vertex 4160.937699473214 -3412.7875009513705 -6.490393315499775
    vertex 4160.285197154174 -3412.7745435197257 -6.495523525609976
  endloop
endfacet
facet normal 0.019854147928930296 0.9998028869782365 -2.2074494263141418e-15
  outer loop
    vertex 4160.937699473214 -3412.7875009513705 -6.490393315499775
    vertex 4160.285197154175 -3412.7745435197257 0.0
    vertex 4160.937699473215 -3412.7875009513705 0.0
  endloop
endfacet
facet normal -0.5170956399679744 -0.8559276249345568 0.0
  outer loop
    vertex 4162.221641018006 -3408.3501223474677 0.0
    vertex 4161.663036149513 -3408.0126497229744 -6.569829393791782
    vertex 4162.221641018006 -3408.3501223474677 -6.569829393791782
  endloop
endfacet
facet normal -0.5170956399679744 -0.8559276249345568 0.0
  outer loop
    vertex 4161.663036149513 -3408.0126497229744 -6.569829393791782
    vertex 4162.221641018006 -3408.3501223474677 0.0
    vertex 4161.663036149513 -3408.0126497229744 0.0
  endloop
endfacet
facet normal -0.7210064038681118 -0.6929283985962572 0.0
  outer loop
    vertex 4162.221641018006 -3408.3501223474677 0.0
    vertex 4162.673867544755 -3408.820673449782 -6.569829393791782
    vertex 4162.673867544755 -3408.820673449782 0.0
  endloop
endfacet
facet normal -0.7210064038681118 -0.6929283985962572 0.0
  outer loop
    vertex 4162.673867544755 -3408.820673449782 -6.569829393791782
    vertex 4162.221641018006 -3408.3501223474677 0.0
    vertex 4162.221641018006 -3408.3501223474677 -6.569829393791782
  endloop
endfacet
facet normal -0.8757817728651764 -0.48270724701119666 2.4878531714982343e-14
  outer loop
    vertex 4162.673867544755 -3408.820673449782 0.0
    vertex 4162.988897239302 -3409.392235749921 -6.569829393791782
    vertex 4162.988897239302 -3409.392235749921 0.0
  endloop
endfacet
facet normal -0.8757817728651764 -0.48270724701119666 2.4878531714982343e-14
  outer loop
    vertex 4162.988897239302 -3409.392235749921 -6.569829393791782
    vertex 4162.673867544755 -3408.820673449782 0.0
    vertex 4162.831382392028 -3409.106454599852 -6.569829393791782
  endloop
endfacet
facet normal -0.8757817728651764 -0.48270724701119666 2.4878531714982343e-14
  outer loop
    vertex 4162.831382392028 -3409.106454599852 -6.569829393791782
    vertex 4162.673867544755 -3408.820673449782 0.0
    vertex 4162.673867544755 -3408.820673449782 -6.569829393791782
  endloop
endfacet
facet normal -0.9708740613389035 -0.2395903942550771 0.0
  outer loop
    vertex 4162.988897239302 -3409.392235749921 0.0
    vertex 4163.145261348574 -3410.025858221681 -6.569829393791782
    vertex 4163.145261348574 -3410.025858221681 0.0
  endloop
endfacet
facet normal -0.9708740613389035 -0.2395903942550771 0.0
  outer loop
    vertex 4163.145261348574 -3410.025858221681 -6.569829393791782
    vertex 4162.988897239302 -3409.392235749921 0.0
    vertex 4162.988897239302 -3409.392235749921 -6.569829393791782
  endloop
endfacet
facet normal -1.650772831021239e-14 0.2486898871648453 -0.9685831611286336
  outer loop
    vertex 4159.632423407582 -3408.039463372467 -6.6573956140661785
    vertex 4151.19180351561 -3408.8909131309906 -6.876010755100602
    vertex 4151.19180351561 -3408.039463372466 -6.6573956140658055
  endloop
endfacet
facet normal -1.650772831021239e-14 0.2486898871648453 -0.9685831611286336
  outer loop
    vertex 4151.19180351561 -3408.8909131309906 -6.876010755100602
    vertex 4159.632423407582 -3408.039463372467 -6.6573956140661785
    vertex 4159.178433846985 -3408.2896901501385 -6.721642930767724
  endloop
endfacet
facet normal -1.650772831021239e-14 0.2486898871648453 -0.9685831611286336
  outer loop
    vertex 4151.19180351561 -3408.8909131309906 -6.876010755100602
    vertex 4159.178433846985 -3408.2896901501385 -6.721642930767724
    vertex 4158.70788274467 -3408.7419166768877 -6.837754967837733
  endloop
endfacet
facet normal -1.650772831021239e-14 0.2486898871648453 -0.9685831611286336
  outer loop
    vertex 4151.19180351561 -3408.8909131309906 -6.876010755100602
    vertex 4158.70788274467 -3408.7419166768877 -6.837754967837733
    vertex 4158.617868805943 -3408.890913130991 -6.876010755100686
  endloop
endfacet
facet normal -0.9708740613388633 -0.2395903942552391 4.461805802941135e-13
  outer loop
    vertex 4162.988897239302 -3409.392235749921 -6.569829393791782
    vertex 4163.145261348574 -3410.025858221681 -6.9861870989977435
    vertex 4163.145261348574 -3410.025858221681 -6.569829393791782
  endloop
endfacet
facet normal -0.9708740613388633 -0.2395903942552391 4.461805802941135e-13
  outer loop
    vertex 4163.145261348574 -3410.025858221681 -6.9861870989977435
    vertex 4162.988897239302 -3409.392235749921 -6.569829393791782
    vertex 4163.080405730027 -3409.763048696386 -6.9861870989977675
  endloop
endfacet
facet normal -0.8757817728654372 -0.4827072470107239 -1.167701539349913e-12
  outer loop
    vertex 4162.831382392028 -3409.106454599852 -6.569829393791782
    vertex 4162.712581758955 -3408.8909131309906 -6.876010755100686
    vertex 4162.988897239302 -3409.392235749921 -6.939342529951112
  endloop
endfacet
facet normal -0.8757817728654372 -0.4827072470107239 -1.167701539349913e-12
  outer loop
    vertex 4162.712581758955 -3408.8909131309906 -6.876010755100686
    vertex 4162.831382392028 -3409.106454599852 -6.569829393791782
    vertex 4162.673867544755 -3408.820673449782 -6.569829393791782
  endloop
endfacet
facet normal -0.7210064038681704 -0.692928398596196 1.6148272542112511e-12
  outer loop
    vertex 4162.221641018006 -3408.3501223474677 -6.569829393791782
    vertex 4162.673867544753 -3408.8206734497817 -6.857976270200146
    vertex 4162.673867544755 -3408.820673449782 -6.569829393791782
  endloop
endfacet
facet normal -0.7210064038681704 -0.692928398596196 1.6148272542112511e-12
  outer loop
    vertex 4162.673867544753 -3408.8206734497817 -6.857976270200146
    vertex 4162.221641018006 -3408.3501223474677 -6.569829393791782
    vertex 4162.447754281379 -3408.585397898624 -6.797567776001382
  endloop
endfacet
facet normal -0.8757817728590582 -0.48270724702229695 3.178927122422112e-12
  outer loop
    vertex 4162.673867544753 -3408.8206734497817 -6.857976270200146
    vertex 4162.712581758955 -3408.8909131309906 -6.876010755100686
    vertex 4162.673867544755 -3408.820673449782 -6.569829393791782
  endloop
endfacet
facet normal -6.671251737016193e-16 -0.36812455268468947 -0.929776485888247
  outer loop
    vertex 4159.281799257275 -3412.3657012937156 -6.6573956140661785
    vertex 4151.19180351561 -3413.1830373740468 -6.3337893672621215
    vertex 4151.19180351561 -3412.3657012937156 -6.6573956140660275
  endloop
endfacet
facet normal -6.671251737016193e-16 -0.36812455268468947 -0.929776485888247
  outer loop
    vertex 4151.19180351561 -3413.1830373740468 -6.3337893672621215
    vertex 4159.281799257275 -3412.3657012937156 -6.6573956140661785
    vertex 4159.658281942587 -3412.593147574716 -6.567343260921572
  endloop
endfacet
facet normal -6.671251737016193e-16 -0.36812455268468947 -0.929776485888247
  outer loop
    vertex 4151.19180351561 -3413.1830373740468 -6.3337893672621215
    vertex 4159.658281942587 -3412.593147574716 -6.567343260921572
    vertex 4160.285197154174 -3412.7745435197257 -6.495523525609976
  endloop
endfacet
facet normal -6.671251737016193e-16 -0.36812455268468947 -0.929776485888247
  outer loop
    vertex 4151.19180351561 -3413.1830373740468 -6.3337893672621215
    vertex 4160.285197154174 -3412.7745435197257 -6.495523525609976
    vertex 4171.19180351561 -3413.1830373740468 -6.3337893672621215
  endloop
endfacet
facet normal -6.671251737016193e-16 -0.36812455268468947 -0.929776485888247
  outer loop
    vertex 4171.19180351561 -3413.1830373740468 -6.3337893672621215
    vertex 4160.285197154174 -3412.7745435197257 -6.495523525609976
    vertex 4160.937699473214 -3412.7875009513705 -6.490393315499775
  endloop
endfacet
facet normal -6.671251737016193e-16 -0.36812455268468947 -0.929776485888247
  outer loop
    vertex 4171.19180351561 -3413.1830373740468 -6.3337893672621215
    vertex 4160.937699473214 -3412.7875009513705 -6.490393315499775
    vertex 4161.571321944971 -3412.6311368420984 -6.552302245931541
  endloop
endfacet
facet normal -6.671251737016193e-16 -0.36812455268468947 -0.929776485888247
  outer loop
    vertex 4171.19180351561 -3413.1830373740468 -6.3337893672621215
    vertex 4161.571321944971 -3412.6311368420984 -6.552302245931541
    vertex 4161.651638876451 -3412.5868683198655 -6.569829393791782
  endloop
endfacet
facet normal -6.671251737016193e-16 -0.36812455268468947 -0.929776485888247
  outer loop
    vertex 4171.19180351561 -3413.1830373740468 -6.3337893672621215
    vertex 4161.651638876451 -3412.5868683198655 -6.569829393791782
    vertex 4162.0529049677725 -3412.3657012937156 -6.657395614066268
  endloop
endfacet
facet normal -6.671251737016193e-16 -0.36812455268468947 -0.929776485888247
  outer loop
    vertex 4171.19180351561 -3413.1830373740468 -6.3337893672621215
    vertex 4162.0529049677725 -3412.3657012937156 -6.657395614066268
    vertex 4171.19180351561 -3412.3657012937156 -6.6573956140660275
  endloop
endfacet
facet normal -1.1777026411525058e-14 0.368124552684679 -0.929776485888251
  outer loop
    vertex 4160.0802601789555 -3407.8931585463883 -6.599469435599539
    vertex 4151.19180351561 -3408.039463372466 -6.6573956140658055
    vertex 4151.19180351561 -3407.222127292135 -6.333789367261815
  endloop
endfacet
facet normal -1.1777026411525058e-14 0.368124552684679 -0.929776485888251
  outer loop
    vertex 4151.19180351561 -3408.039463372466 -6.6573956140658055
    vertex 4160.0802601789555 -3407.8931585463883 -6.599469435599539
    vertex 4159.749996147124 -3407.974660455591 -6.631738324223323
  endloop
endfacet
facet normal -1.1777026411525058e-14 0.368124552684679 -0.929776485888251
  outer loop
    vertex 4151.19180351561 -3408.039463372466 -6.6573956140658055
    vertex 4159.749996147124 -3407.974660455591 -6.631738324223323
    vertex 4159.632423407582 -3408.039463372467 -6.6573956140661785
  endloop
endfacet
facet normal 0.7210064038686429 0.6929283985957044 0.0
  outer loop
    vertex 4158.647450547343 -3411.785123847908 -6.569829393791782
    vertex 4159.099677074091 -3412.2556749502237 0.0
    vertex 4159.099677074091 -3412.2556749502237 -6.569829393791782
  endloop
endfacet
facet normal 0.7210064038686429 0.6929283985957044 0.0
  outer loop
    vertex 4159.099677074091 -3412.2556749502237 0.0
    vertex 4158.647450547343 -3411.785123847908 -6.569829393791782
    vertex 4158.647450547343 -3411.785123847908 0.0
  endloop
endfacet
facet normal 0.9708740613389067 0.23959039425506365 0.0
  outer loop
    vertex 4158.176056743522 -3410.5799390760108 -6.569829393791782
    vertex 4158.332420852795 -3411.213561547768 0.0
    vertex 4158.332420852795 -3411.213561547768 -6.569829393791782
  endloop
endfacet
facet normal 0.9708740613389067 0.23959039425506365 0.0
  outer loop
    vertex 4158.332420852795 -3411.213561547768 0.0
    vertex 4158.176056743522 -3410.5799390760108 -6.569829393791782
    vertex 4158.176056743522 -3410.5799390760108 0.0
  endloop
endfacet
facet normal 0.9998028869782145 -0.019854147930036006 0.0
  outer loop
    vertex 4158.189014175167 -3409.927436756971 -6.569829393791782
    vertex 4158.182535459345 -3410.253687916491 0.0
    vertex 4158.182535459345 -3410.253687916491 -6.569829393791782
  endloop
endfacet
facet normal 0.9998028869782145 -0.019854147930036006 0.0
  outer loop
    vertex 4158.182535459345 -3410.253687916491 0.0
    vertex 4158.189014175167 -3409.927436756971 -6.569829393791782
    vertex 4158.189014175167 -3409.927436756971 0.0
  endloop
endfacet
facet normal 0.8757817728647567 0.4827072470119583 0.0
  outer loop
    vertex 4158.332420852795 -3411.213561547768 -6.569829393791782
    vertex 4158.647450547343 -3411.785123847908 0.0
    vertex 4158.647450547343 -3411.785123847908 -6.569829393791782
  endloop
endfacet
facet normal 0.8757817728647567 0.4827072470119583 0.0
  outer loop
    vertex 4158.647450547343 -3411.785123847908 0.0
    vertex 4158.332420852795 -3411.213561547768 -6.569829393791782
    vertex 4158.332420852795 -3411.213561547768 0.0
  endloop
endfacet
facet normal 0.9605967981218024 -0.27794566274389165 0.0
  outer loop
    vertex 4158.370410120178 -3409.3005215453823 -6.569829393791782
    vertex 4158.189014175167 -3409.927436756971 0.0
    vertex 4158.189014175167 -3409.927436756971 -6.569829393791782
  endloop
endfacet
facet normal 0.9605967981218024 -0.27794566274389165 0.0
  outer loop
    vertex 4158.189014175167 -3409.927436756971 0.0
    vertex 4158.370410120178 -3409.3005215453823 -6.569829393791782
    vertex 4158.370410120178 -3409.3005215453823 0.0
  endloop
endfacet
facet normal 0.5170956399664296 0.8559276249354898 2.8410825204529016e-14
  outer loop
    vertex 4159.099677074091 -3412.2556749502237 0.0
    vertex 4159.658281942587 -3412.593147574716 -6.567343260921572
    vertex 4159.099677074091 -3412.2556749502237 -6.569829393791782
  endloop
endfacet
facet normal 0.5170956399664296 0.8559276249354898 2.8410825204529016e-14
  outer loop
    vertex 4159.658281942587 -3412.593147574716 -6.567343260921572
    vertex 4159.099677074091 -3412.2556749502237 0.0
    vertex 4159.658281942586 -3412.593147574716 0.0
  endloop
endfacet
facet normal 0.9998028869782145 -0.019854147930036006 -2.1097096513953947e-20
  outer loop
    vertex 4158.1792961014335 -3410.416813496251 -6.569829393791782
    vertex 4158.176056743522 -3410.5799390760108 0.0
    vertex 4158.176056743522 -3410.5799390760108 -6.569829393791782
  endloop
endfacet
facet normal 0.9998028869782145 -0.019854147930036006 -2.1097096513953947e-20
  outer loop
    vertex 4158.176056743522 -3410.5799390760108 0.0
    vertex 4158.1792961014335 -3410.416813496251 -6.569829393791782
    vertex 4158.182535459345 -3410.253687916491 0.0
  endloop
endfacet
facet normal 0.9998028869782145 -0.019854147930036006 -2.1097096513953947e-20
  outer loop
    vertex 4158.182535459345 -3410.253687916491 0.0
    vertex 4158.1792961014335 -3410.416813496251 -6.569829393791782
    vertex 4158.182535459345 -3410.253687916491 -6.569829393791782
  endloop
endfacet
facet normal 0.8559276249351482 -0.5170956399669953 0.0
  outer loop
    vertex 4158.707882744671 -3408.741916676887 -6.569829393791782
    vertex 4158.370410120178 -3409.3005215453823 0.0
    vertex 4158.370410120178 -3409.3005215453823 -6.569829393791782
  endloop
endfacet
facet normal 0.8559276249351482 -0.5170956399669953 0.0
  outer loop
    vertex 4158.370410120178 -3409.3005215453823 0.0
    vertex 4158.707882744671 -3408.741916676887 -6.569829393791782
    vertex 4158.707882744671 -3408.741916676887 0.0
  endloop
endfacet
facet normal 0.48270724701157747 -0.8757817728649667 0.0
  outer loop
    vertex 4159.749996147125 -3407.9746604555903 0.0
    vertex 4159.178433846985 -3408.289690150138 -6.569829393791782
    vertex 4159.749996147125 -3407.9746604555903 -6.569829393791782
  endloop
endfacet
facet normal 0.48270724701157747 -0.8757817728649667 0.0
  outer loop
    vertex 4159.178433846985 -3408.289690150138 -6.569829393791782
    vertex 4159.749996147125 -3407.9746604555903 0.0
    vertex 4159.178433846985 -3408.289690150138 0.0
  endloop
endfacet
facet normal 0.23959039425337775 -0.9708740613393227 -3.949062790998566e-14
  outer loop
    vertex 4160.383618618885 -3407.8182963463187 0.0
    vertex 4159.749996147125 -3407.9746604555903 -6.569829393791782
    vertex 4160.383618618883 -3407.8182963463187 -6.569829393791782
  endloop
endfacet
facet normal 0.23959039425337775 -0.9708740613393227 -3.949062790998566e-14
  outer loop
    vertex 4159.749996147125 -3407.9746604555903 -6.569829393791782
    vertex 4160.383618618885 -3407.8182963463187 0.0
    vertex 4159.749996147125 -3407.9746604555903 0.0
  endloop
endfacet
facet normal -0.01985414793003598 -0.9998028869782145 6.542282939921156e-15
  outer loop
    vertex 4161.036120937924 -3407.831253777964 0.0
    vertex 4160.383618618883 -3407.8182963463187 -6.569829393791782
    vertex 4161.0361209379225 -3407.831253777964 -6.574959603901939
  endloop
endfacet
facet normal -0.01985414793003598 -0.9998028869782145 6.542282939921156e-15
  outer loop
    vertex 4160.383618618883 -3407.8182963463187 -6.569829393791782
    vertex 4161.036120937924 -3407.831253777964 0.0
    vertex 4160.383618618885 -3407.8182963463187 0.0
  endloop
endfacet
facet normal 0.6929283985973848 -0.721006403867028 0.0
  outer loop
    vertex 4159.178433846985 -3408.289690150138 0.0
    vertex 4158.707882744671 -3408.741916676887 -6.569829393791782
    vertex 4159.178433846985 -3408.289690150138 -6.569829393791782
  endloop
endfacet
facet normal 0.6929283985973848 -0.721006403867028 0.0
  outer loop
    vertex 4158.707882744671 -3408.741916676887 -6.569829393791782
    vertex 4159.178433846985 -3408.289690150138 0.0
    vertex 4158.707882744671 -3408.741916676887 0.0
  endloop
endfacet
facet normal -0.27794566274374416 -0.9605967981218451 4.581234632031577e-14
  outer loop
    vertex 4161.663036149513 -3408.0126497229744 -6.569829393791782
    vertex 4161.036120937924 -3407.831253777964 0.0
    vertex 4161.0361209379225 -3407.831253777964 -6.574959603901939
  endloop
endfacet
facet normal -0.27794566274374416 -0.9605967981218451 4.581234632031577e-14
  outer loop
    vertex 4161.036120937924 -3407.831253777964 0.0
    vertex 4161.663036149513 -3408.0126497229744 -6.569829393791782
    vertex 4161.663036149513 -3408.0126497229744 0.0
  endloop
endfacet
facet normal 0.2779456627431663 0.9605967981220123 1.6932391801868565e-16
  outer loop
    vertex 4159.658281942586 -3412.593147574716 0.0
    vertex 4160.285197154174 -3412.7745435197257 -6.495523525609976
    vertex 4159.658281942587 -3412.593147574716 -6.567343260921572
  endloop
endfacet
facet normal 0.2779456627431663 0.9605967981220123 1.6932391801868565e-16
  outer loop
    vertex 4160.285197154174 -3412.7745435197257 -6.495523525609976
    vertex 4159.658281942586 -3412.593147574716 0.0
    vertex 4160.285197154175 -3412.7745435197257 0.0
  endloop
endfacet
facet normal 0.8757817728650549 0.48270724701141715 -2.4481631215228604e-12
  outer loop
    vertex 4158.4981530483365 -3411.5142515351913 -6.876010755100866
    vertex 4158.332420852795 -3411.213561547768 -6.569829393791782
    vertex 4158.647450547343 -3411.785123847908 -6.569829393791782
  endloop
endfacet
facet normal 0.8757817728650549 0.48270724701141715 -2.4481631215228604e-12
  outer loop
    vertex 4158.332420852795 -3411.213561547768 -6.569829393791782
    vertex 4158.4981530483365 -3411.5142515351913 -6.876010755100866
    vertex 4158.332420852794 -3411.2135615477673 -6.913996734317002
  endloop
endfacet
facet normal 0.9708740613390271 0.23959039425457612 -4.361040193421467e-13
  outer loop
    vertex 4158.332420852794 -3411.2135615477673 -6.913996734317002
    vertex 4158.176056743522 -3410.5799390760108 -6.569829393791782
    vertex 4158.332420852795 -3411.213561547768 -6.569829393791782
  endloop
endfacet
facet normal 0.9708740613390271 0.23959039425457612 -4.361040193421467e-13
  outer loop
    vertex 4158.176056743522 -3410.5799390760108 -6.569829393791782
    vertex 4158.332420852794 -3411.2135615477673 -6.913996734317002
    vertex 4158.191400635268 -3410.6421159697966 -6.986187098997678
  endloop
endfacet
facet normal 0.9998028869782145 -0.019854147930036002 -6.136753458819807e-19
  outer loop
    vertex 4158.189014175167 -3409.927436756971 -6.986187098997738
    vertex 4158.1792961014335 -3410.416813496251 -6.569829393791782
    vertex 4158.176056743522 -3410.5799390760108 -6.986187098997772
  endloop
endfacet
facet normal 0.9998028869782145 -0.019854147930036002 -6.136753458819807e-19
  outer loop
    vertex 4158.1792961014335 -3410.416813496251 -6.569829393791782
    vertex 4158.189014175167 -3409.927436756971 -6.986187098997738
    vertex 4158.182535459345 -3410.253687916491 -6.569829393791782
  endloop
endfacet
facet normal 0.9998028869782145 -0.019854147930036002 -6.136753458819807e-19
  outer loop
    vertex 4158.182535459345 -3410.253687916491 -6.569829393791782
    vertex 4158.189014175167 -3409.927436756971 -6.986187098997738
    vertex 4158.189014175167 -3409.927436756971 -6.569829393791782
  endloop
endfacet
facet normal -0.482707247012456 0.8757817728644824 -1.0222904511134864e-13
  outer loop
    vertex 4161.571321944971 -3412.6311368420984 -6.552302245931541
    vertex 4162.142884245111 -3412.3161071475497 -6.569829393791782
    vertex 4161.651638876451 -3412.5868683198655 -6.569829393791782
  endloop
endfacet
facet normal -0.482707247012456 0.8757817728644824 -1.0222904511134864e-13
  outer loop
    vertex 4162.142884245111 -3412.3161071475497 -6.569829393791782
    vertex 4161.571321944971 -3412.6311368420984 -6.552302245931541
    vertex 4161.571321944972 -3412.631136842097 0.0
  endloop
endfacet
facet normal 4.018318391341252e-15 0.36812455268479854 -0.9297764858882038
  outer loop
    vertex 4151.19180351561 -3407.222127292135 -6.333789367261815
    vertex 4160.383618618883 -3407.8182963463187 -6.569829393791782
    vertex 4160.0802601789555 -3407.8931585463883 -6.599469435599539
  endloop
endfacet
facet normal 4.018318391341252e-15 0.36812455268479854 -0.9297764858882038
  outer loop
    vertex 4160.383618618883 -3407.8182963463187 -6.569829393791782
    vertex 4151.19180351561 -3407.222127292135 -6.333789367261815
    vertex 4171.19180351561 -3407.222127292135 -6.333789367261815
  endloop
endfacet
facet normal 4.018318391341252e-15 0.36812455268479854 -0.9297764858882038
  outer loop
    vertex 4160.383618618883 -3407.8182963463187 -6.569829393791782
    vertex 4171.19180351561 -3407.222127292135 -6.333789367261815
    vertex 4161.0361209379225 -3407.831253777964 -6.574959603901939
  endloop
endfacet
facet normal 4.018318391341252e-15 0.36812455268479854 -0.9297764858882038
  outer loop
    vertex 4161.0361209379225 -3407.831253777964 -6.574959603901939
    vertex 4171.19180351561 -3407.222127292135 -6.333789367261815
    vertex 4161.66303614951 -3408.012649722973 -6.646779339213534
  endloop
endfacet
facet normal 4.018318391341252e-15 0.36812455268479854 -0.9297764858882038
  outer loop
    vertex 4161.66303614951 -3408.012649722973 -6.646779339213534
    vertex 4171.19180351561 -3407.222127292135 -6.333789367261815
    vertex 4161.707419705573 -3408.039463372466 -6.657395614065908
  endloop
endfacet
facet normal 4.018318391341252e-15 0.36812455268479854 -0.9297764858882038
  outer loop
    vertex 4161.707419705573 -3408.039463372466 -6.657395614065908
    vertex 4171.19180351561 -3407.222127292135 -6.333789367261815
    vertex 4171.19180351561 -3408.039463372466 -6.6573956140658055
  endloop
endfacet
facet normal 1.0 0.0 0.0
  outer loop
    vertex 4171.19180351561 -3414.664550261332 -5.393592699430558
    vertex 4171.19180351561 -3411.5142515351913 -6.876010755100737
    vertex 4171.19180351561 -3415.305362725041 -4.7918297415008695
  endloop
endfacet
facet normal 1.0 0.0 0.0
  outer loop
    vertex 4171.19180351561 -3411.5142515351913 -6.876010755100737
    vertex 4171.19180351561 -3414.664550261332 -5.393592699430558
    vertex 4171.19180351561 -3413.953369897944 -5.910295478514117
  endloop
endfacet
facet normal 1.0 0.0 0.0
  outer loop
    vertex 4171.19180351561 -3411.5142515351913 -6.876010755100737
    vertex 4171.19180351561 -3413.953369897944 -5.910295478514117
    vertex 4171.19180351561 -3413.1830373740468 -6.3337893672621215
  endloop
endfacet
facet normal 1.0 0.0 0.0
  outer loop
    vertex 4171.19180351561 -3411.5142515351913 -6.876010755100737
    vertex 4171.19180351561 -3413.1830373740468 -6.3337893672621215
    vertex 4171.19180351561 -3412.3657012937156 -6.6573956140660275
  endloop
endfacet
facet normal 0.9605967981217367 -0.27794566274411864 -1.0488403058077203e-13
  outer loop
    vertex 4158.236579343546 -3409.763048696386 -6.9861870989977675
    vertex 4158.189014175167 -3409.927436756971 -6.569829393791782
    vertex 4158.189014175167 -3409.927436756971 -6.986187098997738
  endloop
endfacet
facet normal 0.9605967981217367 -0.27794566274411864 -1.0488403058077203e-13
  outer loop
    vertex 4158.189014175167 -3409.927436756971 -6.569829393791782
    vertex 4158.236579343546 -3409.763048696386 -6.9861870989977675
    vertex 4158.370410120178 -3409.3005215453823 -6.569829393791782
  endloop
endfacet
facet normal 0.9605967981217367 -0.27794566274411864 -1.0488403058077203e-13
  outer loop
    vertex 4158.370410120178 -3409.3005215453823 -6.569829393791782
    vertex 4158.236579343546 -3409.763048696386 -6.9861870989977675
    vertex 4158.370410120178 -3409.3005215453827 -6.927756331497053
  endloop
endfacet
facet normal 0.85592762493504 -0.5170956399671741 1.4593175243067411e-12
  outer loop
    vertex 4158.617868805943 -3408.890913130991 -6.876010755100686
    vertex 4158.370410120178 -3409.3005215453823 -6.569829393791782
    vertex 4158.370410120178 -3409.3005215453827 -6.927756331497053
  endloop
endfacet
facet normal 0.85592762493504 -0.5170956399671741 1.4593175243067411e-12
  outer loop
    vertex 4158.370410120178 -3409.3005215453823 -6.569829393791782
    vertex 4158.617868805943 -3408.890913130991 -6.876010755100686
    vertex 4158.707882744671 -3408.741916676887 -6.569829393791782
  endloop
endfacet
facet normal 0.6929283985968657 -0.7210064038675268 -5.22742421145773e-13
  outer loop
    vertex 4159.178433846985 -3408.2896901501385 -6.721642930767724
    vertex 4158.707882744671 -3408.741916676887 -6.569829393791782
    vertex 4158.70788274467 -3408.7419166768877 -6.837754967837733
  endloop
endfacet
facet normal 0.6929283985968657 -0.7210064038675268 -5.22742421145773e-13
  outer loop
    vertex 4158.707882744671 -3408.741916676887 -6.569829393791782
    vertex 4159.178433846985 -3408.2896901501385 -6.721642930767724
    vertex 4159.178433846985 -3408.289690150138 -6.569829393791782
  endloop
endfacet
facet normal 0.8559276249398265 -0.5170956399592511 -3.219194121769218e-12
  outer loop
    vertex 4158.707882744671 -3408.741916676887 -6.569829393791782
    vertex 4158.617868805943 -3408.890913130991 -6.876010755100686
    vertex 4158.70788274467 -3408.7419166768877 -6.837754967837733
  endloop
endfacet
facet normal 0.4827072470114903 -0.8757817728650146 4.607598297909968e-12
  outer loop
    vertex 4159.632423407582 -3408.039463372467 -6.6573956140661785
    vertex 4159.178433846985 -3408.289690150138 -6.569829393791782
    vertex 4159.178433846985 -3408.2896901501385 -6.721642930767724
  endloop
endfacet
facet normal 0.4827072470114903 -0.8757817728650146 4.607598297909968e-12
  outer loop
    vertex 4159.178433846985 -3408.289690150138 -6.569829393791782
    vertex 4159.632423407582 -3408.039463372467 -6.6573956140661785
    vertex 4159.749996147124 -3407.974660455591 -6.631738324223323
  endloop
endfacet
facet normal 0.4827072470114903 -0.8757817728650146 4.607598297909968e-12
  outer loop
    vertex 4159.178433846985 -3408.289690150138 -6.569829393791782
    vertex 4159.749996147124 -3407.974660455591 -6.631738324223323
    vertex 4159.749996147125 -3407.9746604555903 -6.569829393791782
  endloop
endfacet
facet normal 0.23959039425383588 -0.9708740613392097 7.80679899094265e-12
  outer loop
    vertex 4160.0802601789555 -3407.8931585463883 -6.599469435599539
    vertex 4159.749996147125 -3407.9746604555903 -6.569829393791782
    vertex 4159.749996147124 -3407.974660455591 -6.631738324223323
  endloop
endfacet
facet normal 0.23959039425383588 -0.9708740613392097 7.80679899094265e-12
  outer loop
    vertex 4159.749996147125 -3407.9746604555903 -6.569829393791782
    vertex 4160.0802601789555 -3407.8931585463883 -6.599469435599539
    vertex 4160.383618618883 -3407.8182963463187 -6.569829393791782
  endloop
endfacet
facet normal 0.9708740613385484 0.2395903942565162 0.0
  outer loop
    vertex 4158.176056743522 -3410.5799390760108 -6.569829393791782
    vertex 4158.191400635268 -3410.6421159697966 -6.986187098997678
    vertex 4158.176056743522 -3410.5799390760108 -6.986187098997772
  endloop
endfacet
facet normal 0.9998028869782145 -0.019854147930036002 8.744873678817441e-19
  outer loop
    vertex 4158.1792961014335 -3410.416813496251 -6.569829393791782
    vertex 4158.176056743522 -3410.5799390760108 -6.569829393791782
    vertex 4158.176056743522 -3410.5799390760108 -6.986187098997772
  endloop
endfacet
facet normal -0.9708740613385484 -0.2395903942565162 0.0
  outer loop
    vertex 4158.176056743522 -3410.5799390760108 -6.986187098997772
    vertex 4158.191400635268 -3410.6421159697966 -6.986187098997678
    vertex 4158.176056743522 -3410.5799390760108 -6.569829393791782
  endloop
endfacet
facet normal 0.8757817728658613 0.4827072470099543 -6.269318994684451e-12
  outer loop
    vertex 4158.4981530483365 -3411.5142515351913 -6.876010755100866
    vertex 4158.647450547343 -3411.785123847908 -6.569829393791782
    vertex 4158.64745054734 -3411.785123847906 -6.806462565963717
  endloop
endfacet
facet normal 0.7210064038686429 0.6929283985957044 -2.4565907890298913e-12
  outer loop
    vertex 4158.64745054734 -3411.785123847906 -6.806462565963717
    vertex 4158.647450547343 -3411.785123847908 -6.569829393791782
    vertex 4159.099677074091 -3412.2556749502237 -6.569829393791782
  endloop
endfacet
facet normal 0.7210064038670284 0.6929283985973843 3.968894369016323e-12
  outer loop
    vertex 4158.64745054734 -3411.785123847906 -6.806462565963717
    vertex 4159.099677074091 -3412.2556749502237 -6.569829393791782
    vertex 4159.099677074089 -3412.2556749502214 -6.68564557756637
  endloop
endfacet
facet normal 0.5170956399664024 0.8559276249355062 6.339942431358096e-12
  outer loop
    vertex 4159.099677074091 -3412.2556749502237 -6.569829393791782
    vertex 4159.281799257275 -3412.3657012937156 -6.6573956140661785
    vertex 4159.099677074089 -3412.2556749502214 -6.68564557756637
  endloop
endfacet
facet normal 0.5170956399664024 0.8559276249355062 6.339942431358096e-12
  outer loop
    vertex 4159.281799257275 -3412.3657012937156 -6.6573956140661785
    vertex 4159.099677074091 -3412.2556749502237 -6.569829393791782
    vertex 4159.658281942587 -3412.593147574716 -6.567343260921572
  endloop
endfacet
facet normal -0.4827072470127039 0.8757817728643458 -4.393929140412974e-12
  outer loop
    vertex 4162.0529049677725 -3412.3657012937156 -6.657395614066268
    vertex 4162.142884245111 -3412.3161071475497 -6.569829393791782
    vertex 4162.142884245111 -3412.3161071475497 -6.670129226531295
  endloop
endfacet
facet normal -0.4827072470127039 0.8757817728643458 -4.393929140412974e-12
  outer loop
    vertex 4162.142884245111 -3412.3161071475497 -6.569829393791782
    vertex 4162.0529049677725 -3412.3657012937156 -6.657395614066268
    vertex 4161.651638876451 -3412.5868683198655 -6.569829393791782
  endloop
endfacet
facet normal -0.6929283985949095 0.7210064038694068 -8.817931723784177e-13
  outer loop
    vertex 4162.142884245111 -3412.3161071475497 -6.670129226531295
    vertex 4162.613435347427 -3411.8638806208023 -6.569829393791782
    vertex 4162.613435347427 -3411.8638806208023 -6.786241263600583
  endloop
endfacet
facet normal -0.6929283985949095 0.7210064038694068 -8.817931723784177e-13
  outer loop
    vertex 4162.613435347427 -3411.8638806208023 -6.569829393791782
    vertex 4162.142884245111 -3412.3161071475497 -6.670129226531295
    vertex 4162.142884245111 -3412.3161071475497 -6.569829393791782
  endloop
endfacet
facet normal -0.8559276249347411 0.5170956399676689 -7.01830839942251e-18
  outer loop
    vertex 4162.739880472893 -3411.6545810878742 -6.569829393791782
    vertex 4162.613435347427 -3411.8638806208023 -6.786241263600583
    vertex 4162.613435347427 -3411.8638806208023 -6.569829393791782
  endloop
endfacet
facet normal -0.8559276249347411 0.5170956399676689 -7.01830839942251e-18
  outer loop
    vertex 4162.613435347427 -3411.8638806208023 -6.786241263600583
    vertex 4162.739880472893 -3411.6545810878742 -6.569829393791782
    vertex 4162.739880472893 -3411.6545810878742 -6.83998024990178
  endloop
endfacet
facet normal -0.8559276249371329 0.51709563996371 -3.8447008243442366e-17
  outer loop
    vertex 4162.824658435114 -3411.5142515351904 -6.876010755100866
    vertex 4162.739880472893 -3411.6545810878742 -6.83998024990178
    vertex 4162.739880472893 -3411.6545810878742 -6.569829393791782
  endloop
endfacet
facet normal -0.8559276249352289 0.5170956399668615 1.971494622899763e-12
  outer loop
    vertex 4162.95090797192 -3411.3052757523083 -6.569829393791782
    vertex 4162.824658435114 -3411.5142515351904 -6.876010755100866
    vertex 4162.739880472893 -3411.6545810878742 -6.569829393791782
  endloop
endfacet
facet normal -0.8559276249354062 0.5170956399665679 2.2448721175831314e-12
  outer loop
    vertex 4162.95090797192 -3411.305275752307 -6.9024105358628525
    vertex 4162.824658435114 -3411.5142515351904 -6.876010755100866
    vertex 4162.95090797192 -3411.3052757523083 -6.569829393791782
  endloop
endfacet
facet normal -0.9605967981220961 0.2779456627428769 1.2065484550857506e-12
  outer loop
    vertex 4163.132303916928 -3410.6783605407204 -6.981608344880878
    vertex 4162.95090797192 -3411.305275752307 -6.9024105358628525
    vertex 4162.95090797192 -3411.3052757523083 -6.569829393791782
  endloop
endfacet
facet normal -0.9605967981222223 0.2779456627424409 4.872716761773627e-13
  outer loop
    vertex 4163.132303916928 -3410.6783605407204 -6.981608344880878
    vertex 4162.95090797192 -3411.3052757523083 -6.569829393791782
    vertex 4163.132303916928 -3410.678360540721 -6.569829393791782
  endloop
endfacet
facet normal -0.9998028869781921 0.019854147931164107 -2.512191083750181e-13
  outer loop
    vertex 4163.138782632752 -3410.352109381201 -6.569829393791782
    vertex 4163.132303916928 -3410.6783605407204 -6.981608344880878
    vertex 4163.132303916928 -3410.678360540721 -6.569829393791782
  endloop
endfacet
facet normal -0.9998028869781921 0.019854147931164107 -2.512191083750181e-13
  outer loop
    vertex 4163.132303916928 -3410.6783605407204 -6.981608344880878
    vertex 4163.138782632752 -3410.352109381201 -6.569829393791782
    vertex 4163.133023663873 -3410.6421159697966 -6.9861870989977675
  endloop
endfacet
facet normal -0.9998028869781921 0.019854147931164107 -2.512191083750181e-13
  outer loop
    vertex 4163.133023663873 -3410.6421159697966 -6.9861870989977675
    vertex 4163.138782632752 -3410.352109381201 -6.569829393791782
    vertex 4163.145261348574 -3410.025858221681 -6.9861870989977435
  endloop
endfacet
facet normal -0.9998028869781921 0.019854147931164107 -2.512191083750181e-13
  outer loop
    vertex 4163.145261348574 -3410.025858221681 -6.9861870989977435
    vertex 4163.138782632752 -3410.352109381201 -6.569829393791782
    vertex 4163.145261348574 -3410.025858221681 -6.569829393791782
  endloop
endfacet
facet normal -0.8757817728644511 -0.4827072470125127 0.0
  outer loop
    vertex 4162.831382392028 -3409.106454599852 -6.569829393791782
    vertex 4162.988897239302 -3409.392235749921 -6.939342529951112
    vertex 4162.988897239302 -3409.392235749921 -6.569829393791782
  endloop
endfacet
facet normal -0.9708740613390966 -0.23959039425429468 5.341335096531456e-17
  outer loop
    vertex 4162.988897239302 -3409.392235749921 -6.939342529951112
    vertex 4163.080405730027 -3409.763048696386 -6.9861870989977675
    vertex 4162.988897239302 -3409.392235749921 -6.569829393791782
  endloop
endfacet
facet normal -0.7210064038686117 -0.6929283985957368 2.424131198715696e-13
  outer loop
    vertex 4162.221641018005 -3408.3501223474664 -6.737159281802619
    vertex 4162.447754281379 -3408.585397898624 -6.797567776001382
    vertex 4162.221641018006 -3408.3501223474677 -6.569829393791782
  endloop
endfacet
facet normal -0.5170956399675122 -0.8559276249348359 -1.5235596964858686e-12
  outer loop
    vertex 4162.221641018006 -3408.3501223474677 -6.569829393791782
    vertex 4161.707419705573 -3408.039463372466 -6.657395614065908
    vertex 4162.221641018005 -3408.3501223474664 -6.737159281802619
  endloop
endfacet
facet normal -0.5170956399675122 -0.8559276249348359 -1.5235596964858686e-12
  outer loop
    vertex 4161.707419705573 -3408.039463372466 -6.657395614065908
    vertex 4162.221641018006 -3408.3501223474677 -6.569829393791782
    vertex 4161.66303614951 -3408.012649722973 -6.646779339213534
  endloop
endfacet
facet normal -0.5170956399675122 -0.8559276249348359 -1.5235596964858686e-12
  outer loop
    vertex 4161.66303614951 -3408.012649722973 -6.646779339213534
    vertex 4162.221641018006 -3408.3501223474677 -6.569829393791782
    vertex 4161.663036149511 -3408.0126497229735 -6.608304366502658
  endloop
endfacet
facet normal -0.5170956399675122 -0.8559276249348359 -1.5235596964858686e-12
  outer loop
    vertex 4161.663036149511 -3408.0126497229735 -6.608304366502658
    vertex 4162.221641018006 -3408.3501223474677 -6.569829393791782
    vertex 4161.663036149513 -3408.0126497229744 -6.569829393791782
  endloop
endfacet
facet normal -0.27794566274324367 -0.96059679812199 -7.59352681157899e-12
  outer loop
    vertex 4161.663036149511 -3408.0126497229735 -6.608304366502658
    vertex 4161.0361209379225 -3407.831253777964 -6.574959603901939
    vertex 4161.66303614951 -3408.012649722973 -6.646779339213534
  endloop
endfacet
facet normal -0.27794566274324367 -0.96059679812199 -7.59352681157899e-12
  outer loop
    vertex 4161.0361209379225 -3407.831253777964 -6.574959603901939
    vertex 4161.663036149511 -3408.0126497229735 -6.608304366502658
    vertex 4161.663036149513 -3408.0126497229744 -6.569829393791782
  endloop
endfacet
endsolid case
