solid case
facet normal -1.0 0.0 0.0
  outer loop
    vertex 4170.3788939685755 -3507.5959137597424 32.299465
    vertex 4170.3788939685755 -3510.595913759743 31.299464999999998
    vertex 4170.3788939685755 -3510.595913759743 32.299465
  endloop
endfacet
facet normal -1.0 0.0 0.0
  outer loop
    vertex 4170.3788939685755 -3510.595913759743 31.299464999999998
    vertex 4170.3788939685755 -3507.5959137597424 32.299465
    vertex 4170.3788939685755 -3510.595913759743 23.79946499999999
  endloop
endfacet
facet normal -1.0 0.0 0.0
  outer loop
    vertex 4170.3788939685755 -3526.5959137597424 32.299465
    vertex 4170.3788939685755 -3529.5959137597424 2.4999999999999996
    vertex 4170.3788939685755 -3529.5959137597424 32.299465
  endloop
endfacet
facet normal -1.0 0.0 0.0
  outer loop
    vertex 4170.3788939685755 -3529.5959137597424 2.4999999999999996
    vertex 4170.3788939685755 -3526.5959137597424 32.299465
    vertex 4170.3788939685755 -3526.5959137597424 23.79946499999999
  endloop
endfacet
facet normal -1.0 0.0 0.0
  outer loop
    vertex 4170.3788939685755 -3529.5959137597424 2.4999999999999996
    vertex 4170.3788939685755 -3526.5959137597424 23.79946499999999
    vertex 4170.3788939685755 -3507.5959137597424 2.4999999999999996
  endloop
endfacet
facet normal -1.0 0.0 0.0
  outer loop
    vertex 4170.3788939685755 -3526.5959137597424 23.79946499999999
    vertex 4170.3788939685755 -3526.5959137597424 32.299465
    vertex 4170.3788939685755 -3526.5959137597424 31.299464999999998
  endloop
endfacet
facet normal -1.0 0.0 0.0
  outer loop
    vertex 4170.3788939685755 -3507.5959137597424 2.4999999999999996
    vertex 4170.3788939685755 -3526.5959137597424 23.79946499999999
    vertex 4170.3788939685755 -3510.595913759743 23.79946499999999
  endloop
endfacet
facet normal -1.0 0.0 0.0
  outer loop
    vertex 4170.3788939685755 -3507.5959137597424 2.4999999999999996
    vertex 4170.3788939685755 -3510.595913759743 23.79946499999999
    vertex 4170.3788939685755 -3507.5959137597424 32.299465
  endloop
endfacet
facet normal -8.057047092997986e-17 1.5058849724366453e-34 -1.0
  outer loop
    vertex 4173.3788939685755 -3507.5959137597424 2.4999999999999996
    vertex 4171.8788939685755 -3529.5959137597424 2.5000000000000004
    vertex 4171.8788939685755 -3507.5959137597424 2.5000000000000004
  endloop
endfacet
facet normal -8.057047092997986e-17 1.5058849724366453e-34 -1.0
  outer loop
    vertex 4171.8788939685755 -3529.5959137597424 2.5000000000000004
    vertex 4173.3788939685755 -3507.5959137597424 2.4999999999999996
    vertex 4173.3788939685755 -3529.5959137597424 2.4999999999999996
  endloop
endfacet
facet normal -8.057047092997986e-17 1.5058849724366453e-34 -1.0
  outer loop
    vertex 4171.8788939685755 -3507.0959137597424 2.5000000000000004
    vertex 4170.8788939685755 -3507.5959137597424 2.5000000000000004
    vertex 4170.8788939685755 -3507.0959137597424 2.5000000000000004
  endloop
endfacet
facet normal -8.057047092997986e-17 1.5058849724366453e-34 -1.0
  outer loop
    vertex 4170.8788939685755 -3507.5959137597424 2.5000000000000004
    vertex 4171.8788939685755 -3507.0959137597424 2.5000000000000004
    vertex 4170.8788939685755 -3529.5959137597424 2.5000000000000004
  endloop
endfacet
facet normal -8.057047092997986e-17 1.5058849724366453e-34 -1.0
  outer loop
    vertex 4170.8788939685755 -3529.5959137597424 2.5000000000000004
    vertex 4171.8788939685755 -3507.0959137597424 2.5000000000000004
    vertex 4170.8788939685755 -3530.095913759742 2.5000000000000004
  endloop
endfacet
facet normal -8.057047092997986e-17 1.5058849724366453e-34 -1.0
  outer loop
    vertex 4170.8788939685755 -3530.095913759742 2.5000000000000004
    vertex 4171.8788939685755 -3507.0959137597424 2.5000000000000004
    vertex 4171.8788939685755 -3530.095913759742 2.5000000000000004
  endloop
endfacet
facet normal -8.057047092997986e-17 1.5058849724366453e-34 -1.0
  outer loop
    vertex 4171.8788939685755 -3530.095913759742 2.5000000000000004
    vertex 4171.8788939685755 -3507.0959137597424 2.5000000000000004
    vertex 4171.8788939685755 -3507.5959137597424 2.5000000000000004
  endloop
endfacet
facet normal -8.057047092997986e-17 1.5058849724366453e-34 -1.0
  outer loop
    vertex 4171.8788939685755 -3530.095913759742 2.5000000000000004
    vertex 4171.8788939685755 -3507.5959137597424 2.5000000000000004
    vertex 4171.8788939685755 -3529.5959137597424 2.5000000000000004
  endloop
endfacet
facet normal -8.057047092997986e-17 1.5058849724366453e-34 -1.0
  outer loop
    vertex 4170.8788939685755 -3507.5959137597424 2.5000000000000004
    vertex 4170.3788939685755 -3529.5959137597424 2.4999999999999996
    vertex 4170.3788939685755 -3507.5959137597424 2.4999999999999996
  endloop
endfacet
facet normal -8.057047092997986e-17 1.5058849724366453e-34 -1.0
  outer loop
    vertex 4170.3788939685755 -3529.5959137597424 2.4999999999999996
    vertex 4170.8788939685755 -3507.5959137597424 2.5000000000000004
    vertex 4170.8788939685755 -3529.5959137597424 2.5000000000000004
  endloop
endfacet
facet normal 0.0 1.0 0.0
  outer loop
    vertex 4170.3788939685755 -3507.5959137597424 32.299465
    vertex 4170.8788939685755 -3507.5959137597424 2.5000000000000004
    vertex 4170.3788939685755 -3507.5959137597424 2.4999999999999996
  endloop
endfacet
facet normal 0.0 1.0 0.0
  outer loop
    vertex 4170.8788939685755 -3507.5959137597424 2.5000000000000004
    vertex 4170.3788939685755 -3507.5959137597424 32.299465
    vertex 4170.8788939685755 -3507.5959137597424 32.299465
  endloop
endfacet
facet normal 0.0 -1.0 0.0
  outer loop
    vertex 4173.3788939685755 -3529.5959137597424 32.299465
    vertex 4171.8788939685755 -3529.5959137597424 2.5000000000000004
    vertex 4173.3788939685755 -3529.5959137597424 2.4999999999999996
  endloop
endfacet
facet normal 0.0 -1.0 0.0
  outer loop
    vertex 4171.8788939685755 -3529.5959137597424 2.5000000000000004
    vertex 4173.3788939685755 -3529.5959137597424 32.299465
    vertex 4171.8788939685755 -3529.5959137597424 32.299465
  endloop
endfacet
facet normal 0.0 0.0 1.0
  outer loop
    vertex 4171.8788939685755 -3530.095913759742 32.299465
    vertex 4170.8788939685755 -3529.5959137597424 32.299465
    vertex 4170.8788939685755 -3530.095913759742 32.299465
  endloop
endfacet
facet normal 0.0 0.0 1.0
  outer loop
    vertex 4170.8788939685755 -3529.5959137597424 32.299465
    vertex 4170.3788939685755 -3526.5959137597424 32.299465
    vertex 4170.3788939685755 -3529.5959137597424 32.299465
  endloop
endfacet
facet normal 0.0 0.0 1.0
  outer loop
    vertex 4170.3788939685755 -3526.5959137597424 32.299465
    vertex 4170.8788939685755 -3529.5959137597424 32.299465
    vertex 4173.3788939685755 -3525.8459137597424 32.299465
  endloop
endfacet
facet normal 0.0 0.0 1.0
  outer loop
    vertex 4173.3788939685755 -3525.8459137597424 32.299465
    vertex 4170.8788939685755 -3529.5959137597424 32.299465
    vertex 4171.8788939685755 -3529.5959137597424 32.299465
  endloop
endfacet
facet normal 0.0 0.0 1.0
  outer loop
    vertex 4171.8788939685755 -3529.5959137597424 32.299465
    vertex 4170.8788939685755 -3529.5959137597424 32.299465
    vertex 4171.8788939685755 -3530.095913759742 32.299465
  endloop
endfacet
facet normal 0.0 0.0 1.0
  outer loop
    vertex 4173.3788939685755 -3525.8459137597424 32.299465
    vertex 4171.8788939685755 -3529.5959137597424 32.299465
    vertex 4173.3788939685755 -3529.5959137597424 32.299465
  endloop
endfacet
facet normal 1.0 0.0 0.0
  outer loop
    vertex 4174.3788939685755 -3530.095913759742 1.9999999999999998
    vertex 4174.3788939685755 -3532.0959137597424 32.799465
    vertex 4174.3788939685755 -3532.0959137597424 2.000000000000001
  endloop
endfacet
facet normal 1.0 0.0 0.0
  outer loop
    vertex 4174.3788939685755 -3532.0959137597424 32.799465
    vertex 4174.3788939685755 -3530.095913759742 1.9999999999999998
    vertex 4174.3788939685755 -3530.095913759742 32.799465
  endloop
endfacet
facet normal 1.0 0.0 0.0
  outer loop
    vertex 4174.3788939685755 -3505.095913759742 1.9999999999999998
    vertex 4174.3788939685755 -3507.0959137597424 32.799465
    vertex 4174.3788939685755 -3507.0959137597424 1.9999999999999998
  endloop
endfacet
facet normal 1.0 0.0 0.0
  outer loop
    vertex 4174.3788939685755 -3507.0959137597424 32.799465
    vertex 4174.3788939685755 -3505.095913759742 1.9999999999999998
    vertex 4174.3788939685755 -3505.095913759742 32.799465
  endloop
endfacet
facet normal 1.0 0.0 0.0
  outer loop
    vertex 4174.3788939685755 -3530.095913759742 1.9999999999999998
    vertex 4174.3788939685755 -3525.5959137597424 23.79946499999999
    vertex 4174.3788939685755 -3530.095913759742 32.799465
  endloop
endfacet
facet normal 1.0 0.0 0.0
  outer loop
    vertex 4174.3788939685755 -3525.5959137597424 23.79946499999999
    vertex 4174.3788939685755 -3530.095913759742 1.9999999999999998
    vertex 4174.3788939685755 -3507.0959137597424 1.9999999999999998
  endloop
endfacet
facet normal 1.0 0.0 0.0
  outer loop
    vertex 4174.3788939685755 -3525.5959137597424 23.79946499999999
    vertex 4174.3788939685755 -3507.0959137597424 1.9999999999999998
    vertex 4174.3788939685755 -3511.595913759743 23.79946499999999
  endloop
endfacet
facet normal 1.0 0.0 0.0
  outer loop
    vertex 4174.3788939685755 -3511.595913759743 23.79946499999999
    vertex 4174.3788939685755 -3507.0959137597424 1.9999999999999998
    vertex 4174.3788939685755 -3511.595913759743 31.299464999999998
  endloop
endfacet
facet normal 1.0 0.0 0.0
  outer loop
    vertex 4174.3788939685755 -3530.095913759742 32.799465
    vertex 4174.3788939685755 -3525.5959137597424 31.299464999999998
    vertex 4174.3788939685755 -3507.0959137597424 32.799465
  endloop
endfacet
facet normal 1.0 0.0 0.0
  outer loop
    vertex 4174.3788939685755 -3525.5959137597424 31.299464999999998
    vertex 4174.3788939685755 -3530.095913759742 32.799465
    vertex 4174.3788939685755 -3525.5959137597424 23.79946499999999
  endloop
endfacet
facet normal 1.0 0.0 0.0
  outer loop
    vertex 4174.3788939685755 -3507.0959137597424 32.799465
    vertex 4174.3788939685755 -3525.5959137597424 31.299464999999998
    vertex 4174.3788939685755 -3511.595913759743 31.299464999999998
  endloop
endfacet
facet normal 1.0 0.0 0.0
  outer loop
    vertex 4174.3788939685755 -3507.0959137597424 32.799465
    vertex 4174.3788939685755 -3511.595913759743 31.299464999999998
    vertex 4174.3788939685755 -3507.0959137597424 1.9999999999999998
  endloop
endfacet
facet normal 0.0 1.0 0.0
  outer loop
    vertex 4173.3788939685755 -3505.095913759742 32.799465
    vertex 4174.3788939685755 -3505.095913759742 1.9999999999999998
    vertex 4173.3788939685755 -3505.095913759742 1.9999999999999998
  endloop
endfacet
facet normal 0.0 1.0 0.0
  outer loop
    vertex 4174.3788939685755 -3505.095913759742 1.9999999999999998
    vertex 4173.3788939685755 -3505.095913759742 32.799465
    vertex 4174.3788939685755 -3505.095913759742 32.799465
  endloop
endfacet
facet normal 1.0 0.0 0.0
  outer loop
    vertex 4174.3788939685755 -3507.0959137597424 -1.2523166870383562e-30
    vertex 4174.3788939685755 -3530.095913759742 1.9999999999999998
    vertex 4174.3788939685755 -3530.095913759742 -1.2523166870383562e-30
  endloop
endfacet
facet normal 1.0 0.0 0.0
  outer loop
    vertex 4174.3788939685755 -3530.095913759742 1.9999999999999998
    vertex 4174.3788939685755 -3507.0959137597424 -1.2523166870383562e-30
    vertex 4174.3788939685755 -3507.0959137597424 1.9999999999999998
  endloop
endfacet
facet normal -1.0 0.0 0.0
  outer loop
    vertex 4173.3788939685755 -3507.0959137597424 34.799465
    vertex 4173.3788939685755 -3530.095913759742 32.799465
    vertex 4173.3788939685755 -3530.095913759742 34.799465
  endloop
endfacet
facet normal -1.0 0.0 0.0
  outer loop
    vertex 4173.3788939685755 -3530.095913759742 32.799465
    vertex 4173.3788939685755 -3507.0959137597424 34.799465
    vertex 4173.3788939685755 -3507.0959137597424 32.799465
  endloop
endfacet
facet normal -1.0 0.0 0.0
  outer loop
    vertex 4173.3788939685755 -3507.0959137597424 32.799465
    vertex 4173.3788939685755 -3507.0959137597424 34.799465
    vertex 4173.3788939685755 -3506.5993976568134 34.68895385748955
  endloop
endfacet
facet normal -1.0 0.0 0.0
  outer loop
    vertex 4173.3788939685755 -3507.0959137597424 32.799465
    vertex 4173.3788939685755 -3506.5993976568134 34.68895385748955
    vertex 4173.3788939685755 -3507.0959137597424 1.9999999999999998
  endloop
endfacet
facet normal -1.0 0.0 0.0
  outer loop
    vertex 4173.3788939685755 -3507.0959137597424 1.9999999999999998
    vertex 4173.3788939685755 -3506.5993976568134 34.68895385748955
    vertex 4173.3788939685755 -3507.0959137597424 -1.2523166870383562e-30
  endloop
endfacet
facet normal -1.0 0.0 0.0
  outer loop
    vertex 4173.3788939685755 -3507.0959137597424 -1.2523166870383562e-30
    vertex 4173.3788939685755 -3506.5993976568134 34.68895385748955
    vertex 4173.3788939685755 -3506.5993976568134 0.11051114251044845
  endloop
endfacet
facet normal -1.0 0.0 0.0
  outer loop
    vertex 4173.3788939685755 -3506.5993976568134 0.11051114251044845
    vertex 4173.3788939685755 -3506.5993976568134 34.68895385748955
    vertex 4173.3788939685755 -3506.140393394079 34.469736978857014
  endloop
endfacet
facet normal -1.0 0.0 0.0
  outer loop
    vertex 4173.3788939685755 -3506.5993976568134 0.11051114251044845
    vertex 4173.3788939685755 -3506.140393394079 34.469736978857014
    vertex 4173.3788939685755 -3506.140393394079 0.3297280211429806
  endloop
endfacet
facet normal -1.0 0.0 0.0
  outer loop
    vertex 4173.3788939685755 -3506.140393394079 0.3297280211429806
    vertex 4173.3788939685755 -3506.140393394079 34.469736978857014
    vertex 4173.3788939685755 -3505.7423603691486 34.15301839059325
  endloop
endfacet
facet normal -1.0 0.0 0.0
  outer loop
    vertex 4173.3788939685755 -3506.140393394079 0.3297280211429806
    vertex 4173.3788939685755 -3505.7423603691486 34.15301839059325
    vertex 4173.3788939685755 -3505.7423603691486 0.6464466094067457
  endloop
endfacet
facet normal -1.0 0.0 0.0
  outer loop
    vertex 4173.3788939685755 -3505.7423603691486 0.6464466094067457
    vertex 4173.3788939685755 -3505.7423603691486 34.15301839059325
    vertex 4173.3788939685755 -3505.4256417808856 33.754985365663686
  endloop
endfacet
facet normal -1.0 0.0 0.0
  outer loop
    vertex 4173.3788939685755 -3505.7423603691486 0.6464466094067457
    vertex 4173.3788939685755 -3505.4256417808856 33.754985365663686
    vertex 4173.3788939685755 -3505.4256417808856 1.0444796343363074
  endloop
endfacet
facet normal -1.0 0.0 0.0
  outer loop
    vertex 4173.3788939685755 -3505.4256417808856 1.0444796343363074
    vertex 4173.3788939685755 -3505.4256417808856 33.754985365663686
    vertex 4173.3788939685755 -3505.2064249022524 33.29598110292859
  endloop
endfacet
facet normal -1.0 0.0 0.0
  outer loop
    vertex 4173.3788939685755 -3505.4256417808856 1.0444796343363074
    vertex 4173.3788939685755 -3505.2064249022524 33.29598110292859
    vertex 4173.3788939685755 -3505.2064249022524 1.5034838970713968
  endloop
endfacet
facet normal -1.0 0.0 0.0
  outer loop
    vertex 4173.3788939685755 -3505.2064249022524 1.5034838970713968
    vertex 4173.3788939685755 -3505.2064249022524 33.29598110292859
    vertex 4173.3788939685755 -3505.095913759742 32.799465
  endloop
endfacet
facet normal -1.0 0.0 0.0
  outer loop
    vertex 4173.3788939685755 -3505.2064249022524 1.5034838970713968
    vertex 4173.3788939685755 -3505.095913759742 32.799465
    vertex 4173.3788939685755 -3505.095913759742 1.9999999999999998
  endloop
endfacet
facet normal -1.0 0.0 0.0
  outer loop
    vertex 4173.3788939685755 -3531.985402617233 33.29598110292877
    vertex 4173.3788939685755 -3532.0959137597424 2.000000000000001
    vertex 4173.3788939685755 -3532.0959137597424 32.799465
  endloop
endfacet
facet normal -1.0 0.0 0.0
  outer loop
    vertex 4173.3788939685755 -3532.0959137597424 2.000000000000001
    vertex 4173.3788939685755 -3531.985402617233 33.29598110292877
    vertex 4173.3788939685755 -3531.985402617233 1.5034838970712243
  endloop
endfacet
facet normal -1.0 0.0 0.0
  outer loop
    vertex 4173.3788939685755 -3531.985402617233 1.5034838970712243
    vertex 4173.3788939685755 -3531.985402617233 33.29598110292877
    vertex 4173.3788939685755 -3531.7661857385997 33.754985365663934
  endloop
endfacet
facet normal -1.0 0.0 0.0
  outer loop
    vertex 4173.3788939685755 -3531.985402617233 1.5034838970712243
    vertex 4173.3788939685755 -3531.7661857385997 33.754985365663934
    vertex 4173.3788939685755 -3531.7661857385997 1.0444796343360616
  endloop
endfacet
facet normal -1.0 0.0 0.0
  outer loop
    vertex 4173.3788939685755 -3531.7661857385997 1.0444796343360616
    vertex 4173.3788939685755 -3531.7661857385997 33.754985365663934
    vertex 4173.3788939685755 -3531.4494671503357 34.15301839059353
  endloop
endfacet
facet normal -1.0 0.0 0.0
  outer loop
    vertex 4173.3788939685755 -3531.7661857385997 1.0444796343360616
    vertex 4173.3788939685755 -3531.4494671503357 34.15301839059353
    vertex 4173.3788939685755 -3531.4494671503357 0.6464466094064648
  endloop
endfacet
facet normal -1.0 0.0 0.0
  outer loop
    vertex 4173.3788939685755 -3531.4494671503357 0.6464466094064648
    vertex 4173.3788939685755 -3531.4494671503357 34.15301839059353
    vertex 4173.3788939685755 -3531.051434125406 34.469736978857284
  endloop
endfacet
facet normal -1.0 0.0 0.0
  outer loop
    vertex 4173.3788939685755 -3531.4494671503357 0.6464466094064648
    vertex 4173.3788939685755 -3531.051434125406 34.469736978857284
    vertex 4173.3788939685755 -3531.051434125406 0.32972802114271305
  endloop
endfacet
facet normal -1.0 0.0 0.0
  outer loop
    vertex 4173.3788939685755 -3531.051434125406 0.32972802114271305
    vertex 4173.3788939685755 -3531.051434125406 34.469736978857284
    vertex 4173.3788939685755 -3530.592429862671 34.68895385748974
  endloop
endfacet
facet normal -1.0 0.0 0.0
  outer loop
    vertex 4173.3788939685755 -3531.051434125406 0.32972802114271305
    vertex 4173.3788939685755 -3530.592429862671 34.68895385748974
    vertex 4173.3788939685755 -3530.592429862671 0.11051114251024823
  endloop
endfacet
facet normal -1.0 0.0 0.0
  outer loop
    vertex 4173.3788939685755 -3530.592429862671 0.11051114251024823
    vertex 4173.3788939685755 -3530.592429862671 34.68895385748974
    vertex 4173.3788939685755 -3530.095913759742 34.799465
  endloop
endfacet
facet normal -1.0 0.0 0.0
  outer loop
    vertex 4173.3788939685755 -3530.592429862671 0.11051114251024823
    vertex 4173.3788939685755 -3530.095913759742 34.799465
    vertex 4173.3788939685755 -3530.095913759742 -1.2523166870383562e-30
  endloop
endfacet
facet normal -1.0 0.0 0.0
  outer loop
    vertex 4173.3788939685755 -3530.095913759742 -1.2523166870383562e-30
    vertex 4173.3788939685755 -3530.095913759742 34.799465
    vertex 4173.3788939685755 -3530.095913759742 32.799465
  endloop
endfacet
facet normal -1.0 0.0 0.0
  outer loop
    vertex 4173.3788939685755 -3530.095913759742 -1.2523166870383562e-30
    vertex 4173.3788939685755 -3530.095913759742 32.799465
    vertex 4173.3788939685755 -3530.095913759742 1.9999999999999998
  endloop
endfacet
facet normal -1.0 0.0 0.0
  outer loop
    vertex 4173.3788939685755 -3530.095913759742 -1.2523166870383562e-30
    vertex 4173.3788939685755 -3530.095913759742 1.9999999999999998
    vertex 4173.3788939685755 -3507.0959137597424 1.9999999999999998
  endloop
endfacet
facet normal -1.0 0.0 0.0
  outer loop
    vertex 4173.3788939685755 -3530.095913759742 -1.2523166870383562e-30
    vertex 4173.3788939685755 -3507.0959137597424 1.9999999999999998
    vertex 4173.3788939685755 -3507.0959137597424 -1.2523166870383562e-30
  endloop
endfacet
facet normal 0.0 -1.0 0.0
  outer loop
    vertex 4174.3788939685755 -3532.0959137597424 32.799465
    vertex 4173.3788939685755 -3532.0959137597424 2.000000000000001
    vertex 4174.3788939685755 -3532.0959137597424 2.000000000000001
  endloop
endfacet
facet normal 0.0 -1.0 0.0
  outer loop
    vertex 4173.3788939685755 -3532.0959137597424 2.000000000000001
    vertex 4174.3788939685755 -3532.0959137597424 32.799465
    vertex 4173.3788939685755 -3532.0959137597424 32.799465
  endloop
endfacet
facet normal 0.0 0.0 -1.0
  outer loop
    vertex 4174.3788939685755 -3507.0959137597424 -1.2523166870383562e-30
    vertex 4173.3788939685755 -3530.095913759742 -1.2523166870383562e-30
    vertex 4173.3788939685755 -3507.0959137597424 -1.2523166870383562e-30
  endloop
endfacet
facet normal 0.0 0.0 -1.0
  outer loop
    vertex 4173.3788939685755 -3530.095913759742 -1.2523166870383562e-30
    vertex 4174.3788939685755 -3507.0959137597424 -1.2523166870383562e-30
    vertex 4174.3788939685755 -3530.095913759742 -1.2523166870383562e-30
  endloop
endfacet
facet normal 0.0 0.0 1.0
  outer loop
    vertex 4174.3788939685755 -3530.095913759742 34.799465
    vertex 4173.3788939685755 -3507.0959137597424 34.799465
    vertex 4173.3788939685755 -3530.095913759742 34.799465
  endloop
endfacet
facet normal 0.0 0.0 1.0
  outer loop
    vertex 4173.3788939685755 -3507.0959137597424 34.799465
    vertex 4174.3788939685755 -3530.095913759742 34.799465
    vertex 4174.3788939685755 -3507.0959137597424 34.799465
  endloop
endfacet
facet normal -0.24253562503628795 0.9701425001453432 2.67970323399044e-15
  outer loop
    vertex 4170.3788939685755 -3526.5959137597424 31.299464999999998
    vertex 4174.3788939685755 -3525.5959137597424 23.79946499999999
    vertex 4170.3788939685755 -3526.5959137597424 23.79946499999999
  endloop
endfacet
facet normal -0.24253562503628795 0.9701425001453432 2.67970323399044e-15
  outer loop
    vertex 4174.3788939685755 -3525.5959137597424 23.79946499999999
    vertex 4170.3788939685755 -3526.5959137597424 31.299464999999998
    vertex 4174.3788939685755 -3525.5959137597424 31.299464999999998
  endloop
endfacet
facet normal 0.0 0.0 1.0
  outer loop
    vertex 4174.3788939685755 -3525.5959137597424 23.79946499999999
    vertex 4170.3788939685755 -3510.595913759743 23.79946499999999
    vertex 4170.3788939685755 -3526.5959137597424 23.79946499999999
  endloop
endfacet
facet normal 0.0 0.0 1.0
  outer loop
    vertex 4170.3788939685755 -3510.595913759743 23.79946499999999
    vertex 4174.3788939685755 -3525.5959137597424 23.79946499999999
    vertex 4174.3788939685755 -3511.595913759743 23.79946499999999
  endloop
endfacet
facet normal -0.2425356250362879 -0.9701425001453432 2.6841986260957755e-15
  outer loop
    vertex 4174.3788939685755 -3511.595913759743 31.299464999999998
    vertex 4170.3788939685755 -3510.595913759743 23.79946499999999
    vertex 4174.3788939685755 -3511.595913759743 23.79946499999999
  endloop
endfacet
facet normal -0.2425356250362879 -0.9701425001453432 2.6841986260957755e-15
  outer loop
    vertex 4170.3788939685755 -3510.595913759743 23.79946499999999
    vertex 4174.3788939685755 -3511.595913759743 31.299464999999998
    vertex 4170.3788939685755 -3510.595913759743 31.299464999999998
  endloop
endfacet
facet normal 0.0 1.0 0.0
  outer loop
    vertex 4171.8788939685755 -3507.5959137597424 2.5000000000000004
    vertex 4173.3788939685755 -3507.5959137597424 32.299465
    vertex 4173.3788939685755 -3507.5959137597424 2.4999999999999996
  endloop
endfacet
facet normal 0.0 1.0 0.0
  outer loop
    vertex 4173.3788939685755 -3507.5959137597424 32.299465
    vertex 4171.8788939685755 -3507.5959137597424 2.5000000000000004
    vertex 4171.8788939685755 -3507.5959137597424 32.299465
  endloop
endfacet
facet normal 1.0 0.0 0.0
  outer loop
    vertex 4174.3788939685755 -3530.095913759742 32.799465
    vertex 4174.3788939685755 -3531.985402617233 33.29598110292877
    vertex 4174.3788939685755 -3532.0959137597424 32.799465
  endloop
endfacet
facet normal 1.0 0.0 0.0
  outer loop
    vertex 4174.3788939685755 -3531.985402617233 33.29598110292877
    vertex 4174.3788939685755 -3530.095913759742 32.799465
    vertex 4174.3788939685755 -3531.7661857385997 33.754985365663934
  endloop
endfacet
facet normal 1.0 0.0 0.0
  outer loop
    vertex 4174.3788939685755 -3531.7661857385997 33.754985365663934
    vertex 4174.3788939685755 -3530.095913759742 32.799465
    vertex 4174.3788939685755 -3531.4494671503357 34.15301839059353
  endloop
endfacet
facet normal 1.0 0.0 0.0
  outer loop
    vertex 4174.3788939685755 -3531.4494671503357 34.15301839059353
    vertex 4174.3788939685755 -3530.095913759742 32.799465
    vertex 4174.3788939685755 -3531.051434125406 34.469736978857284
  endloop
endfacet
facet normal 1.0 0.0 0.0
  outer loop
    vertex 4174.3788939685755 -3531.051434125406 34.469736978857284
    vertex 4174.3788939685755 -3530.095913759742 32.799465
    vertex 4174.3788939685755 -3530.592429862671 34.68895385748974
  endloop
endfacet
facet normal 1.0 0.0 0.0
  outer loop
    vertex 4174.3788939685755 -3530.592429862671 34.68895385748974
    vertex 4174.3788939685755 -3530.095913759742 32.799465
    vertex 4174.3788939685755 -3530.095913759742 34.799465
  endloop
endfacet
facet normal 0.0 0.9761144709180307 -0.21725685182385607
  outer loop
    vertex 4173.3788939685755 -3505.095913759742 1.9999999999999998
    vertex 4174.3788939685755 -3505.2064249022524 1.5034838970713968
    vertex 4173.3788939685755 -3505.2064249022524 1.5034838970713968
  endloop
endfacet
facet normal 0.0 0.9761144709180307 -0.21725685182385607
  outer loop
    vertex 4174.3788939685755 -3505.2064249022524 1.5034838970713968
    vertex 4173.3788939685755 -3505.095913759742 1.9999999999999998
    vertex 4174.3788939685755 -3505.095913759742 1.9999999999999998
  endloop
endfacet
facet normal 0.0 0.7825039172859483 -0.622645661216832
  outer loop
    vertex 4173.3788939685755 -3505.4256417808856 1.0444796343363074
    vertex 4174.3788939685755 -3505.7423603691486 0.6464466094067457
    vertex 4173.3788939685755 -3505.7423603691486 0.6464466094067457
  endloop
endfacet
facet normal 0.0 0.7825039172859483 -0.622645661216832
  outer loop
    vertex 4174.3788939685755 -3505.7423603691486 0.6464466094067457
    vertex 4173.3788939685755 -3505.4256417808856 1.0444796343363074
    vertex 4174.3788939685755 -3505.4256417808856 1.0444796343363074
  endloop
endfacet
facet normal 0.0 0.21725685182375756 -0.9761144709180527
  outer loop
    vertex 4174.3788939685755 -3506.5993976568134 0.11051114251044845
    vertex 4173.3788939685755 -3507.0959137597424 -1.2523166870383562e-30
    vertex 4173.3788939685755 -3506.5993976568134 0.11051114251044845
  endloop
endfacet
facet normal 0.0 0.21725685182375756 -0.9761144709180527
  outer loop
    vertex 4173.3788939685755 -3507.0959137597424 -1.2523166870383562e-30
    vertex 4174.3788939685755 -3506.5993976568134 0.11051114251044845
    vertex 4174.3788939685755 -3507.0959137597424 -1.2523166870383562e-30
  endloop
endfacet
facet normal 0.0 -1.0 0.0
  outer loop
    vertex 4170.8788939685755 -3529.5959137597424 2.5000000000000004
    vertex 4170.3788939685755 -3529.5959137597424 32.299465
    vertex 4170.3788939685755 -3529.5959137597424 2.4999999999999996
  endloop
endfacet
facet normal 0.0 -1.0 0.0
  outer loop
    vertex 4170.3788939685755 -3529.5959137597424 32.299465
    vertex 4170.8788939685755 -3529.5959137597424 2.5000000000000004
    vertex 4170.8788939685755 -3529.5959137597424 32.299465
  endloop
endfacet
facet normal 0.0 0.9023689270619045 -0.4309644062717334
  outer loop
    vertex 4173.3788939685755 -3505.2064249022524 1.5034838970713968
    vertex 4174.3788939685755 -3505.4256417808856 1.0444796343363074
    vertex 4173.3788939685755 -3505.4256417808856 1.0444796343363074
  endloop
endfacet
facet normal 0.0 0.9023689270619045 -0.4309644062717334
  outer loop
    vertex 4174.3788939685755 -3505.4256417808856 1.0444796343363074
    vertex 4173.3788939685755 -3505.2064249022524 1.5034838970713968
    vertex 4174.3788939685755 -3505.2064249022524 1.5034838970713968
  endloop
endfacet
facet normal 0.0 0.6226456612166968 -0.7825039172860558
  outer loop
    vertex 4174.3788939685755 -3505.7423603691486 0.6464466094067457
    vertex 4173.3788939685755 -3506.140393394079 0.3297280211429806
    vertex 4173.3788939685755 -3505.7423603691486 0.6464466094067457
  endloop
endfacet
facet normal 0.0 0.6226456612166968 -0.7825039172860558
  outer loop
    vertex 4173.3788939685755 -3506.140393394079 0.3297280211429806
    vertex 4174.3788939685755 -3505.7423603691486 0.6464466094067457
    vertex 4174.3788939685755 -3506.140393394079 0.3297280211429806
  endloop
endfacet
facet normal 0.0 0.43096440627162647 -0.9023689270619556
  outer loop
    vertex 4174.3788939685755 -3506.140393394079 0.3297280211429806
    vertex 4173.3788939685755 -3506.5993976568134 0.11051114251044845
    vertex 4173.3788939685755 -3506.140393394079 0.3297280211429806
  endloop
endfacet
facet normal 0.0 0.43096440627162647 -0.9023689270619556
  outer loop
    vertex 4173.3788939685755 -3506.5993976568134 0.11051114251044845
    vertex 4174.3788939685755 -3506.140393394079 0.3297280211429806
    vertex 4174.3788939685755 -3506.5993976568134 0.11051114251044845
  endloop
endfacet
facet normal 0.0 0.9761144709180305 0.21725685182385718
  outer loop
    vertex 4173.3788939685755 -3505.2064249022524 33.29598110292859
    vertex 4174.3788939685755 -3505.095913759742 32.799465
    vertex 4173.3788939685755 -3505.095913759742 32.799465
  endloop
endfacet
facet normal 0.0 0.9761144709180305 0.21725685182385718
  outer loop
    vertex 4174.3788939685755 -3505.095913759742 32.799465
    vertex 4173.3788939685755 -3505.2064249022524 33.29598110292859
    vertex 4174.3788939685755 -3505.2064249022524 33.29598110292859
  endloop
endfacet
facet normal 0.0 0.2172568518237596 0.9761144709180524
  outer loop
    vertex 4174.3788939685755 -3507.0959137597424 34.799465
    vertex 4173.3788939685755 -3506.5993976568134 34.68895385748955
    vertex 4173.3788939685755 -3507.0959137597424 34.799465
  endloop
endfacet
facet normal 0.0 0.2172568518237596 0.9761144709180524
  outer loop
    vertex 4173.3788939685755 -3506.5993976568134 34.68895385748955
    vertex 4174.3788939685755 -3507.0959137597424 34.799465
    vertex 4174.3788939685755 -3506.5993976568134 34.68895385748955
  endloop
endfacet
facet normal 0.0 0.6226456612166904 0.7825039172860608
  outer loop
    vertex 4174.3788939685755 -3506.140393394079 34.469736978857014
    vertex 4173.3788939685755 -3505.7423603691486 34.15301839059325
    vertex 4173.3788939685755 -3506.140393394079 34.469736978857014
  endloop
endfacet
facet normal 0.0 0.6226456612166904 0.7825039172860608
  outer loop
    vertex 4173.3788939685755 -3505.7423603691486 34.15301839059325
    vertex 4174.3788939685755 -3506.140393394079 34.469736978857014
    vertex 4174.3788939685755 -3505.7423603691486 34.15301839059325
  endloop
endfacet
facet normal 0.0 -0.9761144709183477 0.2172568518224321
  outer loop
    vertex 4174.3788939685755 -3531.985402617233 33.29598110292877
    vertex 4173.3788939685755 -3532.0959137597424 32.799465
    vertex 4174.3788939685755 -3532.0959137597424 32.799465
  endloop
endfacet
facet normal 0.0 -0.9761144709183477 0.2172568518224321
  outer loop
    vertex 4173.3788939685755 -3532.0959137597424 32.799465
    vertex 4174.3788939685755 -3531.985402617233 33.29598110292877
    vertex 4173.3788939685755 -3531.985402617233 33.29598110292877
  endloop
endfacet
facet normal 0.0 -0.782503917285281 0.6226456612176707
  outer loop
    vertex 4174.3788939685755 -3531.4494671503357 34.15301839059353
    vertex 4173.3788939685755 -3531.7661857385997 33.754985365663934
    vertex 4174.3788939685755 -3531.7661857385997 33.754985365663934
  endloop
endfacet
facet normal 0.0 -0.782503917285281 0.6226456612176707
  outer loop
    vertex 4173.3788939685755 -3531.7661857385997 33.754985365663934
    vertex 4174.3788939685755 -3531.4494671503357 34.15301839059353
    vertex 4173.3788939685755 -3531.4494671503357 34.15301839059353
  endloop
endfacet
facet normal 0.0 -0.6226456612173752 0.782503917285516
  outer loop
    vertex 4174.3788939685755 -3531.4494671503357 34.15301839059353
    vertex 4173.3788939685755 -3531.051434125406 34.469736978857284
    vertex 4173.3788939685755 -3531.4494671503357 34.15301839059353
  endloop
endfacet
facet normal 0.0 -0.6226456612173752 0.782503917285516
  outer loop
    vertex 4173.3788939685755 -3531.051434125406 34.469736978857284
    vertex 4174.3788939685755 -3531.4494671503357 34.15301839059353
    vertex 4174.3788939685755 -3531.051434125406 34.469736978857284
  endloop
endfacet
facet normal 0.0 -0.2172568518233898 0.9761144709181346
  outer loop
    vertex 4174.3788939685755 -3530.592429862671 34.68895385748974
    vertex 4173.3788939685755 -3530.095913759742 34.799465
    vertex 4173.3788939685755 -3530.592429862671 34.68895385748974
  endloop
endfacet
facet normal 0.0 -0.2172568518233898 0.9761144709181346
  outer loop
    vertex 4173.3788939685755 -3530.095913759742 34.799465
    vertex 4174.3788939685755 -3530.592429862671 34.68895385748974
    vertex 4174.3788939685755 -3530.095913759742 34.799465
  endloop
endfacet
facet normal 0.0 0.4309644062716337 0.9023689270619519
  outer loop
    vertex 4174.3788939685755 -3506.5993976568134 34.68895385748955
    vertex 4173.3788939685755 -3506.140393394079 34.469736978857014
    vertex 4173.3788939685755 -3506.5993976568134 34.68895385748955
  endloop
endfacet
facet normal 0.0 0.4309644062716337 0.9023689270619519
  outer loop
    vertex 4173.3788939685755 -3506.140393394079 34.469736978857014
    vertex 4174.3788939685755 -3506.5993976568134 34.68895385748955
    vertex 4174.3788939685755 -3506.140393394079 34.469736978857014
  endloop
endfacet
facet normal 0.0 -0.43096440627096444 0.9023689270622716
  outer loop
    vertex 4174.3788939685755 -3531.051434125406 34.469736978857284
    vertex 4173.3788939685755 -3530.592429862671 34.68895385748974
    vertex 4173.3788939685755 -3531.051434125406 34.469736978857284
  endloop
endfacet
facet normal 0.0 -0.43096440627096444 0.9023689270622716
  outer loop
    vertex 4173.3788939685755 -3530.592429862671 34.68895385748974
    vertex 4174.3788939685755 -3531.051434125406 34.469736978857284
    vertex 4174.3788939685755 -3530.592429862671 34.68895385748974
  endloop
endfacet
facet normal 0.0 0.9023689270619049 0.4309644062717326
  outer loop
    vertex 4173.3788939685755 -3505.4256417808856 33.754985365663686
    vertex 4174.3788939685755 -3505.2064249022524 33.29598110292859
    vertex 4173.3788939685755 -3505.2064249022524 33.29598110292859
  endloop
endfacet
facet normal 0.0 0.9023689270619049 0.4309644062717326
  outer loop
    vertex 4174.3788939685755 -3505.2064249022524 33.29598110292859
    vertex 4173.3788939685755 -3505.4256417808856 33.754985365663686
    vertex 4174.3788939685755 -3505.4256417808856 33.754985365663686
  endloop
endfacet
facet normal 0.0 0.7825039172859509 0.6226456612168287
  outer loop
    vertex 4173.3788939685755 -3505.7423603691486 34.15301839059325
    vertex 4174.3788939685755 -3505.4256417808856 33.754985365663686
    vertex 4173.3788939685755 -3505.4256417808856 33.754985365663686
  endloop
endfacet
facet normal 0.0 0.7825039172859509 0.6226456612168287
  outer loop
    vertex 4174.3788939685755 -3505.4256417808856 33.754985365663686
    vertex 4173.3788939685755 -3505.7423603691486 34.15301839059325
    vertex 4174.3788939685755 -3505.7423603691486 34.15301839059325
  endloop
endfacet
facet normal 0.0 -0.9023689270619316 0.4309644062716765
  outer loop
    vertex 4174.3788939685755 -3531.7661857385997 33.754985365663934
    vertex 4173.3788939685755 -3531.985402617233 33.29598110292877
    vertex 4174.3788939685755 -3531.985402617233 33.29598110292877
  endloop
endfacet
facet normal 0.0 -0.9023689270619316 0.4309644062716765
  outer loop
    vertex 4173.3788939685755 -3531.985402617233 33.29598110292877
    vertex 4174.3788939685755 -3531.7661857385997 33.754985365663934
    vertex 4173.3788939685755 -3531.7661857385997 33.754985365663934
  endloop
endfacet
facet normal 0.0 -0.9761144709183479 -0.2172568518224315
  outer loop
    vertex 4174.3788939685755 -3532.0959137597424 2.000000000000001
    vertex 4173.3788939685755 -3531.985402617233 1.5034838970712243
    vertex 4174.3788939685755 -3531.985402617233 1.5034838970712243
  endloop
endfacet
facet normal 0.0 -0.9761144709183479 -0.2172568518224315
  outer loop
    vertex 4173.3788939685755 -3531.985402617233 1.5034838970712243
    vertex 4174.3788939685755 -3532.0959137597424 2.000000000000001
    vertex 4173.3788939685755 -3532.0959137597424 2.000000000000001
  endloop
endfacet
facet normal -0.0 -0.4309644062709667 -0.9023689270622706
  outer loop
    vertex 4174.3788939685755 -3530.592429862671 0.11051114251024823
    vertex 4173.3788939685755 -3531.051434125406 0.32972802114271305
    vertex 4173.3788939685755 -3530.592429862671 0.11051114251024823
  endloop
endfacet
facet normal -0.0 -0.4309644062709667 -0.9023689270622706
  outer loop
    vertex 4173.3788939685755 -3531.051434125406 0.32972802114271305
    vertex 4174.3788939685755 -3530.592429862671 0.11051114251024823
    vertex 4174.3788939685755 -3531.051434125406 0.32972802114271305
  endloop
endfacet
facet normal 0.0 -0.21725685182338253 -0.9761144709181361
  outer loop
    vertex 4174.3788939685755 -3530.095913759742 -1.2523166870383562e-30
    vertex 4173.3788939685755 -3530.592429862671 0.11051114251024823
    vertex 4173.3788939685755 -3530.095913759742 -1.2523166870383562e-30
  endloop
endfacet
facet normal 0.0 -0.21725685182338253 -0.9761144709181361
  outer loop
    vertex 4173.3788939685755 -3530.592429862671 0.11051114251024823
    vertex 4174.3788939685755 -3530.095913759742 -1.2523166870383562e-30
    vertex 4174.3788939685755 -3530.592429862671 0.11051114251024823
  endloop
endfacet
facet normal -0.0 -0.6226456612173722 -0.7825039172855184
  outer loop
    vertex 4174.3788939685755 -3531.051434125406 0.32972802114271305
    vertex 4173.3788939685755 -3531.4494671503357 0.6464466094064648
    vertex 4173.3788939685755 -3531.051434125406 0.32972802114271305
  endloop
endfacet
facet normal -0.0 -0.6226456612173722 -0.7825039172855184
  outer loop
    vertex 4173.3788939685755 -3531.4494671503357 0.6464466094064648
    vertex 4174.3788939685755 -3531.051434125406 0.32972802114271305
    vertex 4174.3788939685755 -3531.4494671503357 0.6464466094064648
  endloop
endfacet
facet normal -0.0 -0.7825039172852837 -0.6226456612176672
  outer loop
    vertex 4174.3788939685755 -3531.7661857385997 1.0444796343360616
    vertex 4173.3788939685755 -3531.4494671503357 0.6464466094064648
    vertex 4174.3788939685755 -3531.4494671503357 0.6464466094064648
  endloop
endfacet
facet normal -0.0 -0.7825039172852837 -0.6226456612176672
  outer loop
    vertex 4173.3788939685755 -3531.4494671503357 0.6464466094064648
    vertex 4174.3788939685755 -3531.7661857385997 1.0444796343360616
    vertex 4173.3788939685755 -3531.7661857385997 1.0444796343360616
  endloop
endfacet
facet normal -0.0 -0.9023689270619312 -0.4309644062716775
  outer loop
    vertex 4174.3788939685755 -3531.985402617233 1.5034838970712243
    vertex 4173.3788939685755 -3531.7661857385997 1.0444796343360616
    vertex 4174.3788939685755 -3531.7661857385997 1.0444796343360616
  endloop
endfacet
facet normal -0.0 -0.9023689270619312 -0.4309644062716775
  outer loop
    vertex 4173.3788939685755 -3531.7661857385997 1.0444796343360616
    vertex 4174.3788939685755 -3531.985402617233 1.5034838970712243
    vertex 4173.3788939685755 -3531.985402617233 1.5034838970712243
  endloop
endfacet
facet normal 1.0 0.0 0.0
  outer loop
    vertex 4171.8788939685755 -3529.5959137597424 2.5000000000000004
    vertex 4171.8788939685755 -3530.095913759742 32.299465
    vertex 4171.8788939685755 -3530.095913759742 2.5000000000000004
  endloop
endfacet
facet normal 1.0 0.0 0.0
  outer loop
    vertex 4171.8788939685755 -3530.095913759742 32.299465
    vertex 4171.8788939685755 -3529.5959137597424 2.5000000000000004
    vertex 4171.8788939685755 -3529.5959137597424 32.299465
  endloop
endfacet
facet normal 0.0 -1.0 0.0
  outer loop
    vertex 4171.8788939685755 -3530.095913759742 32.299465
    vertex 4170.8788939685755 -3530.095913759742 2.5000000000000004
    vertex 4171.8788939685755 -3530.095913759742 2.5000000000000004
  endloop
endfacet
facet normal 0.0 -1.0 0.0
  outer loop
    vertex 4170.8788939685755 -3530.095913759742 2.5000000000000004
    vertex 4171.8788939685755 -3530.095913759742 32.299465
    vertex 4170.8788939685755 -3530.095913759742 32.299465
  endloop
endfacet
facet normal -1.0 -0.0 -0.0
  outer loop
    vertex 4170.8788939685755 -3529.5959137597424 32.299465
    vertex 4170.8788939685755 -3530.095913759742 2.5000000000000004
    vertex 4170.8788939685755 -3530.095913759742 32.299465
  endloop
endfacet
facet normal -1.0 -0.0 -0.0
  outer loop
    vertex 4170.8788939685755 -3530.095913759742 2.5000000000000004
    vertex 4170.8788939685755 -3529.5959137597424 32.299465
    vertex 4170.8788939685755 -3529.5959137597424 2.5000000000000004
  endloop
endfacet
facet normal 0.0 1.0 0.0
  outer loop
    vertex 4170.8788939685755 -3507.0959137597424 32.299465
    vertex 4171.8788939685755 -3507.0959137597424 2.5000000000000004
    vertex 4170.8788939685755 -3507.0959137597424 2.5000000000000004
  endloop
endfacet
facet normal 0.0 1.0 0.0
  outer loop
    vertex 4171.8788939685755 -3507.0959137597424 2.5000000000000004
    vertex 4170.8788939685755 -3507.0959137597424 32.299465
    vertex 4171.8788939685755 -3507.0959137597424 32.299465
  endloop
endfacet
facet normal 1.0 0.0 0.0
  outer loop
    vertex 4171.8788939685755 -3507.0959137597424 2.5000000000000004
    vertex 4171.8788939685755 -3507.5959137597424 32.299465
    vertex 4171.8788939685755 -3507.5959137597424 2.5000000000000004
  endloop
endfacet
facet normal 1.0 0.0 0.0
  outer loop
    vertex 4171.8788939685755 -3507.5959137597424 32.299465
    vertex 4171.8788939685755 -3507.0959137597424 2.5000000000000004
    vertex 4171.8788939685755 -3507.0959137597424 32.299465
  endloop
endfacet
facet normal -1.0 0.0 0.0
  outer loop
    vertex 4170.8788939685755 -3507.0959137597424 32.299465
    vertex 4170.8788939685755 -3507.5959137597424 2.5000000000000004
    vertex 4170.8788939685755 -3507.5959137597424 32.299465
  endloop
endfacet
facet normal -1.0 0.0 0.0
  outer loop
    vertex 4170.8788939685755 -3507.5959137597424 2.5000000000000004
    vertex 4170.8788939685755 -3507.0959137597424 32.299465
    vertex 4170.8788939685755 -3507.0959137597424 2.5000000000000004
  endloop
endfacet
facet normal 1.0 0.0 0.0
  outer loop
    vertex 4174.3788939685755 -3505.095913759742 32.799465
    vertex 4174.3788939685755 -3507.0959137597424 34.799465
    vertex 4174.3788939685755 -3507.0959137597424 32.799465
  endloop
endfacet
facet normal 1.0 0.0 0.0
  outer loop
    vertex 4174.3788939685755 -3507.0959137597424 34.799465
    vertex 4174.3788939685755 -3505.095913759742 32.799465
    vertex 4174.3788939685755 -3506.5993976568134 34.68895385748955
  endloop
endfacet
facet normal 1.0 0.0 0.0
  outer loop
    vertex 4174.3788939685755 -3506.5993976568134 34.68895385748955
    vertex 4174.3788939685755 -3505.095913759742 32.799465
    vertex 4174.3788939685755 -3506.140393394079 34.469736978857014
  endloop
endfacet
facet normal 1.0 0.0 0.0
  outer loop
    vertex 4174.3788939685755 -3506.140393394079 34.469736978857014
    vertex 4174.3788939685755 -3505.095913759742 32.799465
    vertex 4174.3788939685755 -3505.7423603691486 34.15301839059325
  endloop
endfacet
facet normal 1.0 0.0 0.0
  outer loop
    vertex 4174.3788939685755 -3505.7423603691486 34.15301839059325
    vertex 4174.3788939685755 -3505.095913759742 32.799465
    vertex 4174.3788939685755 -3505.4256417808856 33.754985365663686
  endloop
endfacet
facet normal 1.0 0.0 0.0
  outer loop
    vertex 4174.3788939685755 -3505.4256417808856 33.754985365663686
    vertex 4174.3788939685755 -3505.095913759742 32.799465
    vertex 4174.3788939685755 -3505.2064249022524 33.29598110292859
  endloop
endfacet
facet normal 1.0 0.0 0.0
  outer loop
    vertex 4174.3788939685755 -3531.985402617233 1.5034838970712243
    vertex 4174.3788939685755 -3530.095913759742 1.9999999999999998
    vertex 4174.3788939685755 -3532.0959137597424 2.000000000000001
  endloop
endfacet
facet normal 1.0 0.0 0.0
  outer loop
    vertex 4174.3788939685755 -3530.095913759742 1.9999999999999998
    vertex 4174.3788939685755 -3531.985402617233 1.5034838970712243
    vertex 4174.3788939685755 -3531.7661857385997 1.0444796343360616
  endloop
endfacet
facet normal 1.0 0.0 0.0
  outer loop
    vertex 4174.3788939685755 -3530.095913759742 1.9999999999999998
    vertex 4174.3788939685755 -3531.7661857385997 1.0444796343360616
    vertex 4174.3788939685755 -3531.4494671503357 0.6464466094064648
  endloop
endfacet
facet normal 1.0 0.0 0.0
  outer loop
    vertex 4174.3788939685755 -3530.095913759742 1.9999999999999998
    vertex 4174.3788939685755 -3531.4494671503357 0.6464466094064648
    vertex 4174.3788939685755 -3531.051434125406 0.32972802114271305
  endloop
endfacet
facet normal 1.0 0.0 0.0
  outer loop
    vertex 4174.3788939685755 -3530.095913759742 1.9999999999999998
    vertex 4174.3788939685755 -3531.051434125406 0.32972802114271305
    vertex 4174.3788939685755 -3530.592429862671 0.11051114251024823
  endloop
endfacet
facet normal 1.0 0.0 0.0
  outer loop
    vertex 4174.3788939685755 -3530.095913759742 1.9999999999999998
    vertex 4174.3788939685755 -3530.592429862671 0.11051114251024823
    vertex 4174.3788939685755 -3530.095913759742 -1.2523166870383562e-30
  endloop
endfacet
facet normal 1.0 0.0 0.0
  outer loop
    vertex 4174.3788939685755 -3506.5993976568134 0.11051114251044845
    vertex 4174.3788939685755 -3507.0959137597424 1.9999999999999998
    vertex 4174.3788939685755 -3507.0959137597424 -1.2523166870383562e-30
  endloop
endfacet
facet normal 1.0 0.0 0.0
  outer loop
    vertex 4174.3788939685755 -3507.0959137597424 1.9999999999999998
    vertex 4174.3788939685755 -3506.5993976568134 0.11051114251044845
    vertex 4174.3788939685755 -3505.095913759742 1.9999999999999998
  endloop
endfacet
facet normal 1.0 0.0 0.0
  outer loop
    vertex 4174.3788939685755 -3505.095913759742 1.9999999999999998
    vertex 4174.3788939685755 -3506.5993976568134 0.11051114251044845
    vertex 4174.3788939685755 -3506.140393394079 0.3297280211429806
  endloop
endfacet
facet normal 1.0 0.0 0.0
  outer loop
    vertex 4174.3788939685755 -3505.095913759742 1.9999999999999998
    vertex 4174.3788939685755 -3506.140393394079 0.3297280211429806
    vertex 4174.3788939685755 -3505.7423603691486 0.6464466094067457
  endloop
endfacet
facet normal 1.0 0.0 0.0
  outer loop
    vertex 4174.3788939685755 -3505.095913759742 1.9999999999999998
    vertex 4174.3788939685755 -3505.7423603691486 0.6464466094067457
    vertex 4174.3788939685755 -3505.4256417808856 1.0444796343363074
  endloop
endfacet
facet normal 1.0 0.0 0.0
  outer loop
    vertex 4174.3788939685755 -3505.095913759742 1.9999999999999998
    vertex 4174.3788939685755 -3505.4256417808856 1.0444796343363074
    vertex 4174.3788939685755 -3505.2064249022524 1.5034838970713968
  endloop
endfacet
facet normal 1.0 0.0 0.0
  outer loop
    vertex 4174.3788939685755 -3507.0959137597424 32.799465
    vertex 4174.3788939685755 -3530.095913759742 34.799465
    vertex 4174.3788939685755 -3530.095913759742 32.799465
  endloop
endfacet
facet normal 1.0 0.0 0.0
  outer loop
    vertex 4174.3788939685755 -3530.095913759742 34.799465
    vertex 4174.3788939685755 -3507.0959137597424 32.799465
    vertex 4174.3788939685755 -3507.0959137597424 34.799465
  endloop
endfacet
facet normal 0.0 0.0 1.0
  outer loop
    vertex 4173.3788939685755 -3511.345913759743 32.299465
    vertex 4170.3788939685755 -3507.5959137597424 32.299465
    vertex 4170.3788939685755 -3510.595913759743 32.299465
  endloop
endfacet
facet normal 0.0 0.0 1.0
  outer loop
    vertex 4170.3788939685755 -3507.5959137597424 32.299465
    vertex 4173.3788939685755 -3511.345913759743 32.299465
    vertex 4170.8788939685755 -3507.5959137597424 32.299465
  endloop
endfacet
facet normal 0.0 0.0 1.0
  outer loop
    vertex 4170.8788939685755 -3507.5959137597424 32.299465
    vertex 4173.3788939685755 -3511.345913759743 32.299465
    vertex 4170.8788939685755 -3507.0959137597424 32.299465
  endloop
endfacet
facet normal 0.0 0.0 1.0
  outer loop
    vertex 4170.8788939685755 -3507.0959137597424 32.299465
    vertex 4173.3788939685755 -3511.345913759743 32.299465
    vertex 4171.8788939685755 -3507.5959137597424 32.299465
  endloop
endfacet
facet normal 0.0 0.0 1.0
  outer loop
    vertex 4171.8788939685755 -3507.5959137597424 32.299465
    vertex 4173.3788939685755 -3511.345913759743 32.299465
    vertex 4173.3788939685755 -3507.5959137597424 32.299465
  endloop
endfacet
facet normal 0.0 0.0 1.0
  outer loop
    vertex 4171.8788939685755 -3507.0959137597424 32.299465
    vertex 4170.8788939685755 -3507.0959137597424 32.299465
    vertex 4171.8788939685755 -3507.5959137597424 32.299465
  endloop
endfacet
facet normal -0.0 -0.0 -1.0
  outer loop
    vertex 4174.3788939685755 -3511.595913759743 31.299464999999998
    vertex 4170.3788939685755 -3526.5959137597424 31.299464999999998
    vertex 4170.3788939685755 -3510.595913759743 31.299464999999998
  endloop
endfacet
facet normal -0.0 -0.0 -1.0
  outer loop
    vertex 4170.3788939685755 -3526.5959137597424 31.299464999999998
    vertex 4174.3788939685755 -3511.595913759743 31.299464999999998
    vertex 4174.3788939685755 -3525.5959137597424 31.299464999999998
  endloop
endfacet
facet normal -1.0 -0.0 -0.0
  outer loop
    vertex 4170.3788939685755 -3510.595913759743 32.299465
    vertex 4170.3788939685755 -3526.5959137597424 31.299464999999998
    vertex 4170.3788939685755 -3526.5959137597424 32.299465
  endloop
endfacet
facet normal -1.0 -0.0 -0.0
  outer loop
    vertex 4170.3788939685755 -3526.5959137597424 31.299464999999998
    vertex 4170.3788939685755 -3510.595913759743 32.299465
    vertex 4170.3788939685755 -3510.595913759743 31.299464999999998
  endloop
endfacet
facet normal 0.0 0.0 1.0
  outer loop
    vertex 4173.3788939685755 -3525.8459137597424 32.299465
    vertex 4170.3788939685755 -3510.595913759743 32.299465
    vertex 4170.3788939685755 -3526.5959137597424 32.299465
  endloop
endfacet
facet normal 0.0 0.0 1.0
  outer loop
    vertex 4170.3788939685755 -3510.595913759743 32.299465
    vertex 4173.3788939685755 -3525.8459137597424 32.299465
    vertex 4173.3788939685755 -3511.345913759743 32.299465
  endloop
endfacet
facet normal -1.0 0.0 0.0
  outer loop
    vertex 4173.3788939685755 -3507.5959137597424 32.299465
    vertex 4173.3788939685755 -3529.5959137597424 32.299465
    vertex 4173.3788939685755 -3530.095913759742 32.799465
  endloop
endfacet
facet normal -1.0 0.0 0.0
  outer loop
    vertex 4173.3788939685755 -3529.5959137597424 32.299465
    vertex 4173.3788939685755 -3507.5959137597424 32.299465
    vertex 4173.3788939685755 -3525.8459137597424 32.299465
  endloop
endfacet
facet normal -1.0 0.0 0.0
  outer loop
    vertex 4173.3788939685755 -3525.8459137597424 32.299465
    vertex 4173.3788939685755 -3507.5959137597424 32.299465
    vertex 4173.3788939685755 -3511.345913759743 32.299465
  endloop
endfacet
facet normal -1.0 0.0 0.0
  outer loop
    vertex 4173.3788939685755 -3507.0959137597424 32.799465
    vertex 4173.3788939685755 -3507.5959137597424 32.299465
    vertex 4173.3788939685755 -3530.095913759742 32.799465
  endloop
endfacet
facet normal -1.0 0.0 0.0
  outer loop
    vertex 4173.3788939685755 -3507.5959137597424 32.299465
    vertex 4173.3788939685755 -3507.0959137597424 32.799465
    vertex 4173.3788939685755 -3507.5959137597424 2.4999999999999996
  endloop
endfacet
facet normal -1.0 0.0 0.0
  outer loop
    vertex 4173.3788939685755 -3529.5959137597424 32.299465
    vertex 4173.3788939685755 -3530.095913759742 1.9999999999999998
    vertex 4173.3788939685755 -3530.095913759742 32.799465
  endloop
endfacet
facet normal -1.0 0.0 0.0
  outer loop
    vertex 4173.3788939685755 -3530.095913759742 1.9999999999999998
    vertex 4173.3788939685755 -3529.5959137597424 32.299465
    vertex 4173.3788939685755 -3529.5959137597424 2.4999999999999996
  endloop
endfacet
facet normal -1.0 0.0 0.0
  outer loop
    vertex 4173.3788939685755 -3530.095913759742 1.9999999999999998
    vertex 4173.3788939685755 -3529.5959137597424 2.4999999999999996
    vertex 4173.3788939685755 -3507.0959137597424 1.9999999999999998
  endloop
endfacet
facet normal -1.0 0.0 0.0
  outer loop
    vertex 4173.3788939685755 -3507.0959137597424 1.9999999999999998
    vertex 4173.3788939685755 -3529.5959137597424 2.4999999999999996
    vertex 4173.3788939685755 -3507.5959137597424 2.4999999999999996
  endloop
endfacet
facet normal -1.0 0.0 0.0
  outer loop
    vertex 4173.3788939685755 -3507.0959137597424 1.9999999999999998
    vertex 4173.3788939685755 -3507.5959137597424 2.4999999999999996
    vertex 4173.3788939685755 -3507.0959137597424 32.799465
  endloop
endfacet
endsolid case
